<svg xmlns="http://www.w3.org/2000/svg" xmlns:xlink="http://www.w3.org/1999/xlink" width="1080" zoomAndPan="magnify" viewBox="0 0 810 809.999993" height="1080" preserveAspectRatio="xMidYMid meet" version="1.0"><defs><g/><clipPath id="d4320fb0e1"><path d="M 128.726562 440 L 668.492188 440 L 668.492188 662.4375 L 128.726562 662.4375 Z M 128.726562 440 " clip-rule="nonzero"/></clipPath><clipPath id="040f6b095c"><path d="M 507 147.535156 L 681.472656 147.535156 L 681.472656 532 L 507 532 Z M 507 147.535156 " clip-rule="nonzero"/></clipPath><clipPath id="44e751377b"><path d="M 645.652344 222.039062 L 681.472656 222.039062 L 681.472656 258.089844 L 645.652344 258.089844 Z M 645.652344 222.039062 " clip-rule="nonzero"/></clipPath><clipPath id="6014317f69"><path d="M 550 312.167969 L 557.894531 312.167969 L 557.894531 325 L 550 325 Z M 550 312.167969 " clip-rule="nonzero"/></clipPath><clipPath id="977188bc5d"><path d="M 602.917969 317.410156 C 602.917969 334.621094 588.960938 340.515625 571.742188 330.578125 C 554.527344 320.644531 540.570312 298.640625 540.570312 281.425781 C 540.570312 264.21875 554.527344 258.320312 571.742188 268.257812 C 588.960938 278.191406 602.917969 300.199219 602.917969 317.410156 " clip-rule="nonzero"/></clipPath><clipPath id="6c0ecf75ea"><path d="M 549.476562 304 L 566.308594 304 L 566.308594 324 L 549.476562 324 Z M 549.476562 304 " clip-rule="nonzero"/></clipPath><clipPath id="f6f4024936"><path d="M 602.917969 317.410156 C 602.917969 334.621094 588.960938 340.515625 571.742188 330.578125 C 554.527344 320.644531 540.570312 298.640625 540.570312 281.425781 C 540.570312 264.21875 554.527344 258.320312 571.742188 268.257812 C 588.960938 278.191406 602.917969 300.199219 602.917969 317.410156 " clip-rule="nonzero"/></clipPath><clipPath id="c7fa166dcd"><path d="M 585.542969 331.394531 L 593.957031 331.394531 L 593.957031 336 L 585.542969 336 Z M 585.542969 331.394531 " clip-rule="nonzero"/></clipPath><clipPath id="8528e0d3f5"><path d="M 602.917969 317.410156 C 602.917969 334.621094 588.960938 340.515625 571.742188 330.578125 C 554.527344 320.644531 540.570312 298.640625 540.570312 281.425781 C 540.570312 264.21875 554.527344 258.320312 571.742188 268.257812 C 588.960938 278.191406 602.917969 300.199219 602.917969 317.410156 " clip-rule="nonzero"/></clipPath><clipPath id="d310f045f0"><path d="M 577.128906 314 L 593.957031 314 L 593.957031 336 L 577.128906 336 Z M 577.128906 314 " clip-rule="nonzero"/></clipPath><clipPath id="940ee02933"><path d="M 602.917969 317.410156 C 602.917969 334.621094 588.960938 340.515625 571.742188 330.578125 C 554.527344 320.644531 540.570312 298.640625 540.570312 281.425781 C 540.570312 264.21875 554.527344 258.320312 571.742188 268.257812 C 588.960938 278.191406 602.917969 300.199219 602.917969 317.410156 " clip-rule="nonzero"/></clipPath><clipPath id="1daefcf6be"><path d="M 559.09375 307.359375 L 584.339844 307.359375 L 584.339844 336 L 559.09375 336 Z M 559.09375 307.359375 " clip-rule="nonzero"/></clipPath><clipPath id="a61e4ace93"><path d="M 602.917969 317.410156 C 602.917969 334.621094 588.960938 340.515625 571.742188 330.578125 C 554.527344 320.644531 540.570312 298.640625 540.570312 281.425781 C 540.570312 264.21875 554.527344 258.320312 571.742188 268.257812 C 588.960938 278.191406 602.917969 300.199219 602.917969 317.410156 " clip-rule="nonzero"/></clipPath><clipPath id="3f53a7aee5"><path d="M 560.296875 284.527344 L 566.308594 284.527344 L 566.308594 292 L 560.296875 292 Z M 560.296875 284.527344 " clip-rule="nonzero"/></clipPath><clipPath id="3231d7b1bd"><path d="M 602.917969 317.410156 C 602.917969 334.621094 588.960938 340.515625 571.742188 330.578125 C 554.527344 320.644531 540.570312 298.640625 540.570312 281.425781 C 540.570312 264.21875 554.527344 258.320312 571.742188 268.257812 C 588.960938 278.191406 602.917969 300.199219 602.917969 317.410156 " clip-rule="nonzero"/></clipPath><clipPath id="ae42732b2e"><path d="M 561.5 285.730469 L 565.105469 285.730469 L 565.105469 290.535156 L 561.5 290.535156 Z M 561.5 285.730469 " clip-rule="nonzero"/></clipPath><clipPath id="854409069a"><path d="M 602.917969 317.410156 C 602.917969 334.621094 588.960938 340.515625 571.742188 330.578125 C 554.527344 320.644531 540.570312 298.640625 540.570312 281.425781 C 540.570312 264.21875 554.527344 258.320312 571.742188 268.257812 C 588.960938 278.191406 602.917969 300.199219 602.917969 317.410156 " clip-rule="nonzero"/></clipPath><clipPath id="f04d33af45"><path d="M 577.128906 294.140625 L 583 294.140625 L 583 301.351562 L 577.128906 301.351562 Z M 577.128906 294.140625 " clip-rule="nonzero"/></clipPath><clipPath id="abd39cf074"><path d="M 602.917969 317.410156 C 602.917969 334.621094 588.960938 340.515625 571.742188 330.578125 C 554.527344 320.644531 540.570312 298.640625 540.570312 281.425781 C 540.570312 264.21875 554.527344 258.320312 571.742188 268.257812 C 588.960938 278.191406 602.917969 300.199219 602.917969 317.410156 " clip-rule="nonzero"/></clipPath><clipPath id="c57681ccee"><path d="M 578.328125 295.34375 L 581.9375 295.34375 L 581.9375 300.152344 L 578.328125 300.152344 Z M 578.328125 295.34375 " clip-rule="nonzero"/></clipPath><clipPath id="6b801ca459"><path d="M 602.917969 317.410156 C 602.917969 334.621094 588.960938 340.515625 571.742188 330.578125 C 554.527344 320.644531 540.570312 298.640625 540.570312 281.425781 C 540.570312 264.21875 554.527344 258.320312 571.742188 268.257812 C 588.960938 278.191406 602.917969 300.199219 602.917969 317.410156 " clip-rule="nonzero"/></clipPath><clipPath id="b114928758"><path d="M 562 280 L 565 280 L 565 290 L 562 290 Z M 562 280 " clip-rule="nonzero"/></clipPath><clipPath id="068df0f2f1"><path d="M 602.917969 317.410156 C 602.917969 334.621094 588.960938 340.515625 571.742188 330.578125 C 554.527344 320.644531 540.570312 298.640625 540.570312 281.425781 C 540.570312 264.21875 554.527344 258.320312 571.742188 268.257812 C 588.960938 278.191406 602.917969 300.199219 602.917969 317.410156 " clip-rule="nonzero"/></clipPath><clipPath id="7067463b6d"><path d="M 578.328125 289.335938 L 581.9375 289.335938 L 581.9375 298.949219 L 578.328125 298.949219 Z M 578.328125 289.335938 " clip-rule="nonzero"/></clipPath><clipPath id="c7270550ad"><path d="M 602.917969 317.410156 C 602.917969 334.621094 588.960938 340.515625 571.742188 330.578125 C 554.527344 320.644531 540.570312 298.640625 540.570312 281.425781 C 540.570312 264.21875 554.527344 258.320312 571.742188 268.257812 C 588.960938 278.191406 602.917969 300.199219 602.917969 317.410156 " clip-rule="nonzero"/></clipPath><clipPath id="c585dcf2dc"><path d="M 568 299 L 575.925781 299 L 575.925781 313 L 568 313 Z M 568 299 " clip-rule="nonzero"/></clipPath><clipPath id="c27745bccb"><path d="M 602.917969 317.410156 C 602.917969 334.621094 588.960938 340.515625 571.742188 330.578125 C 554.527344 320.644531 540.570312 298.640625 540.570312 281.425781 C 540.570312 264.21875 554.527344 258.320312 571.742188 268.257812 C 588.960938 278.191406 602.917969 300.199219 602.917969 317.410156 " clip-rule="nonzero"/></clipPath><clipPath id="8930e55ca0"><path d="M 568 299 L 575.925781 299 L 575.925781 309 L 568 309 Z M 568 299 " clip-rule="nonzero"/></clipPath><clipPath id="a8e9a9f279"><path d="M 602.917969 317.410156 C 602.917969 334.621094 588.960938 340.515625 571.742188 330.578125 C 554.527344 320.644531 540.570312 298.640625 540.570312 281.425781 C 540.570312 264.21875 554.527344 258.320312 571.742188 268.257812 C 588.960938 278.191406 602.917969 300.199219 602.917969 317.410156 " clip-rule="nonzero"/></clipPath><clipPath id="6a61569dc1"><path d="M 563 279 L 580.734375 279 L 580.734375 308 L 563 308 Z M 563 279 " clip-rule="nonzero"/></clipPath><clipPath id="8adc2f931a"><path d="M 602.917969 317.410156 C 602.917969 334.621094 588.960938 340.515625 571.742188 330.578125 C 554.527344 320.644531 540.570312 298.640625 540.570312 281.425781 C 540.570312 264.21875 554.527344 258.320312 571.742188 268.257812 C 588.960938 278.191406 602.917969 300.199219 602.917969 317.410156 " clip-rule="nonzero"/></clipPath><clipPath id="e920b026da"><path d="M 566 304 L 578 304 L 578 314.570312 L 566 314.570312 Z M 566 304 " clip-rule="nonzero"/></clipPath><clipPath id="62e63c5f27"><path d="M 602.917969 317.410156 C 602.917969 334.621094 588.960938 340.515625 571.742188 330.578125 C 554.527344 320.644531 540.570312 298.640625 540.570312 281.425781 C 540.570312 264.21875 554.527344 258.320312 571.742188 268.257812 C 588.960938 278.191406 602.917969 300.199219 602.917969 317.410156 " clip-rule="nonzero"/></clipPath><clipPath id="029dd15218"><path d="M 562 274 L 583 274 L 583 295 L 562 295 Z M 562 274 " clip-rule="nonzero"/></clipPath><clipPath id="9b8af3926d"><path d="M 602.917969 317.410156 C 602.917969 334.621094 588.960938 340.515625 571.742188 330.578125 C 554.527344 320.644531 540.570312 298.640625 540.570312 281.425781 C 540.570312 264.21875 554.527344 258.320312 571.742188 268.257812 C 588.960938 278.191406 602.917969 300.199219 602.917969 317.410156 " clip-rule="nonzero"/></clipPath><clipPath id="9e8ca56eed"><path d="M 552 542 L 565 542 L 565 551 L 552 551 Z M 552 542 " clip-rule="nonzero"/></clipPath><clipPath id="756b4e5847"><path d="M 600.441406 523.652344 L 549.074219 553.300781 L 496.972656 523.652344 L 548.304688 493.816406 L 600.441406 523.652344 " clip-rule="nonzero"/></clipPath><clipPath id="21e1a7628b"><path d="M 547.074219 531 L 564 531 L 564 548.902344 L 547.074219 548.902344 Z M 547.074219 531 " clip-rule="nonzero"/></clipPath><clipPath id="5f1744a3cf"><path d="M 600.441406 523.652344 L 549.074219 553.300781 L 496.972656 523.652344 L 548.304688 493.816406 L 600.441406 523.652344 " clip-rule="nonzero"/></clipPath><clipPath id="296d1920ba"><path d="M 580.734375 526 L 595 526 L 595 533 L 580.734375 533 Z M 580.734375 526 " clip-rule="nonzero"/></clipPath><clipPath id="f765849cb2"><path d="M 600.441406 523.652344 L 549.074219 553.300781 L 496.972656 523.652344 L 548.304688 493.816406 L 600.441406 523.652344 " clip-rule="nonzero"/></clipPath><clipPath id="65ed06fb83"><path d="M 562.703125 523 L 592.753906 523 L 592.753906 533 L 562.703125 533 Z M 562.703125 523 " clip-rule="nonzero"/></clipPath><clipPath id="134b11bb7d"><path d="M 600.441406 523.652344 L 549.074219 553.300781 L 496.972656 523.652344 L 548.304688 493.816406 L 600.441406 523.652344 " clip-rule="nonzero"/></clipPath><clipPath id="bf7e51a4a9"><path d="M 552 526 L 587.945312 526 L 587.945312 546 L 552 546 Z M 552 526 " clip-rule="nonzero"/></clipPath><clipPath id="d28f82e30e"><path d="M 600.441406 523.652344 L 549.074219 553.300781 L 496.972656 523.652344 L 548.304688 493.816406 L 600.441406 523.652344 " clip-rule="nonzero"/></clipPath><clipPath id="610328861c"><path d="M 532.648438 522.464844 L 541 522.464844 L 541 527 L 532.648438 527 Z M 532.648438 522.464844 " clip-rule="nonzero"/></clipPath><clipPath id="b8c24facb8"><path d="M 600.441406 523.652344 L 549.074219 553.300781 L 496.972656 523.652344 L 548.304688 493.816406 L 600.441406 523.652344 " clip-rule="nonzero"/></clipPath><clipPath id="d4ab064cb9"><path d="M 533.851562 523 L 539 523 L 539 526 L 533.851562 526 Z M 533.851562 523 " clip-rule="nonzero"/></clipPath><clipPath id="d45ff24d13"><path d="M 600.441406 523.652344 L 549.074219 553.300781 L 496.972656 523.652344 L 548.304688 493.816406 L 600.441406 523.652344 " clip-rule="nonzero"/></clipPath><clipPath id="1e8fb94ad5"><path d="M 547 514.050781 L 554 514.050781 L 554 518.859375 L 547 518.859375 Z M 547 514.050781 " clip-rule="nonzero"/></clipPath><clipPath id="ebae043272"><path d="M 600.441406 523.652344 L 549.074219 553.300781 L 496.972656 523.652344 L 548.304688 493.816406 L 600.441406 523.652344 " clip-rule="nonzero"/></clipPath><clipPath id="2c77ae7bf5"><path d="M 548.277344 515 L 553 515 L 553 518 L 548.277344 518 Z M 548.277344 515 " clip-rule="nonzero"/></clipPath><clipPath id="33db2ad33d"><path d="M 600.441406 523.652344 L 549.074219 553.300781 L 496.972656 523.652344 L 548.304688 493.816406 L 600.441406 523.652344 " clip-rule="nonzero"/></clipPath><clipPath id="44715e661b"><path d="M 529.042969 520.058594 L 538.660156 520.058594 L 538.660156 524.867188 L 529.042969 524.867188 Z M 529.042969 520.058594 " clip-rule="nonzero"/></clipPath><clipPath id="c54d873949"><path d="M 600.441406 523.652344 L 549.074219 553.300781 L 496.972656 523.652344 L 548.304688 493.816406 L 600.441406 523.652344 " clip-rule="nonzero"/></clipPath><clipPath id="47f9d604d9"><path d="M 543 512 L 550.679688 512 L 550.679688 517.65625 L 543 517.65625 Z M 543 512 " clip-rule="nonzero"/></clipPath><clipPath id="947a2d9a79"><path d="M 600.441406 523.652344 L 549.074219 553.300781 L 496.972656 523.652344 L 548.304688 493.816406 L 600.441406 523.652344 " clip-rule="nonzero"/></clipPath><clipPath id="91984dfe62"><path d="M 547.074219 523 L 561 523 L 561 530.875 L 547.074219 530.875 Z M 547.074219 523 " clip-rule="nonzero"/></clipPath><clipPath id="6cdd43e4a9"><path d="M 600.441406 523.652344 L 549.074219 553.300781 L 496.972656 523.652344 L 548.304688 493.816406 L 600.441406 523.652344 " clip-rule="nonzero"/></clipPath><clipPath id="0e23d1eae1"><path d="M 547.074219 523 L 557.894531 523 L 557.894531 529 L 547.074219 529 Z M 547.074219 523 " clip-rule="nonzero"/></clipPath><clipPath id="57af34f266"><path d="M 600.441406 523.652344 L 549.074219 553.300781 L 496.972656 523.652344 L 548.304688 493.816406 L 600.441406 523.652344 " clip-rule="nonzero"/></clipPath><clipPath id="0c208c0f75"><path d="M 530 512.851562 L 557.894531 512.851562 L 557.894531 529 L 530 529 Z M 530 512.851562 " clip-rule="nonzero"/></clipPath><clipPath id="0b96c18c9d"><path d="M 600.441406 523.652344 L 549.074219 553.300781 L 496.972656 523.652344 L 548.304688 493.816406 L 600.441406 523.652344 " clip-rule="nonzero"/></clipPath><clipPath id="ffc66c7f66"><path d="M 551 525 L 563 525 L 563 532 L 551 532 Z M 551 525 " clip-rule="nonzero"/></clipPath><clipPath id="064fe6b559"><path d="M 600.441406 523.652344 L 549.074219 553.300781 L 496.972656 523.652344 L 548.304688 493.816406 L 600.441406 523.652344 " clip-rule="nonzero"/></clipPath><clipPath id="7f7d1414bf"><path d="M 525.433594 508.042969 L 548 508.042969 L 548 523.664062 L 525.433594 523.664062 Z M 525.433594 508.042969 " clip-rule="nonzero"/></clipPath><clipPath id="5767fc169e"><path d="M 600.441406 523.652344 L 549.074219 553.300781 L 496.972656 523.652344 L 548.304688 493.816406 L 600.441406 523.652344 " clip-rule="nonzero"/></clipPath></defs><rect x="-81" width="972" fill="#ffffff" y="-80.999999" height="971.999992" fill-opacity="1"/><rect x="-81" width="972" fill="#ffffff" y="-80.999999" height="971.999992" fill-opacity="1"/><g clip-path="url(#d4320fb0e1)"><path fill="#5b79cc" d="M 434.765625 662.4375 L 668.164062 527.109375 L 513.746094 440.226562 L 128.726562 662.4375 L 434.765625 662.4375 " fill-opacity="1" fill-rule="nonzero"/></g><path fill="#ffffff" d="M 446.289062 577.367188 C 444.46875 575.152344 443.195312 572.757812 442.464844 570.1875 C 441.734375 567.621094 441.375 564.679688 441.375 561.363281 L 441.375 531.433594 L 449.238281 535.976562 L 449.238281 566.832031 C 449.238281 569.382812 449.539062 571.523438 450.140625 573.253906 C 450.742188 574.988281 451.972656 576.386719 453.832031 577.457031 C 455.722656 578.550781 456.972656 578.582031 457.574219 577.539062 C 458.175781 576.507812 458.476562 574.714844 458.476562 572.164062 L 458.476562 541.304688 L 466.289062 545.8125 L 466.289062 575.742188 C 466.289062 579.023438 465.925781 581.535156 465.195312 583.28125 C 464.464844 585.027344 463.191406 585.957031 461.367188 586.070312 C 459.546875 586.183594 457.035156 585.3125 453.832031 583.464844 C 450.625 581.613281 448.113281 579.582031 446.289062 577.367188 " fill-opacity="1" fill-rule="nonzero"/><path fill="#ffffff" d="M 472.847656 549.601562 L 480.820312 554.199219 L 480.820312 598.441406 L 472.847656 593.839844 L 472.847656 549.601562 " fill-opacity="1" fill-rule="nonzero"/><path fill="#d2d2d2" d="M 349.003906 345.289062 C 347.488281 345.195312 346.433594 344.429688 345.824219 342.992188 C 345.21875 341.5625 344.917969 339.464844 344.917969 336.714844 L 344.917969 311.84375 L 351.457031 308.070312 L 351.457031 333.707031 C 351.457031 335.832031 351.707031 337.320312 352.203125 338.175781 C 352.707031 339.042969 353.722656 339.027344 355.269531 338.136719 C 356.84375 337.230469 357.878906 336.054688 358.378906 334.613281 C 358.878906 333.179688 359.128906 331.398438 359.128906 329.28125 L 359.128906 303.644531 L 365.621094 299.898438 L 365.621094 324.761719 C 365.621094 327.488281 365.320312 329.925781 364.714844 332.074219 C 364.105469 334.226562 363.046875 336.21875 361.535156 338.058594 C 360.023438 339.898438 357.933594 341.589844 355.269531 343.128906 C 352.605469 344.664062 350.515625 345.386719 349.003906 345.289062 " fill-opacity="1" fill-rule="nonzero"/><path fill="#d2d2d2" d="M 375.972656 311.167969 L 368.796875 298.0625 L 375.0625 294.445312 L 379.828125 303.132812 L 384.007812 289.285156 L 389.769531 285.957031 L 382.734375 308.535156 L 390.316406 322.402344 L 384.097656 325.992188 L 378.875 316.613281 L 374.335938 331.625 L 368.574219 334.953125 L 375.972656 311.167969 " fill-opacity="1" fill-rule="nonzero"/><path fill="#000000" d="M 442.179688 579.738281 C 440.359375 577.519531 439.085938 575.128906 438.359375 572.558594 C 437.632812 569.992188 437.265625 567.046875 437.265625 563.734375 L 437.265625 533.804688 L 445.136719 538.34375 L 445.136719 569.203125 C 445.136719 571.753906 445.4375 573.894531 446.035156 575.625 C 446.636719 577.355469 447.867188 578.753906 449.722656 579.824219 C 451.617188 580.917969 452.863281 580.949219 453.464844 579.910156 C 454.066406 578.878906 454.367188 577.085938 454.367188 574.535156 L 454.367188 543.675781 L 462.179688 548.183594 L 462.179688 578.117188 C 462.179688 581.394531 461.816406 583.90625 461.085938 585.652344 C 460.359375 587.398438 459.085938 588.328125 457.265625 588.441406 C 455.441406 588.550781 452.929688 587.683594 449.722656 585.835938 C 446.515625 583.984375 444.003906 581.953125 442.179688 579.738281 " fill-opacity="1" fill-rule="nonzero"/><path fill="#000000" d="M 468.738281 551.964844 L 476.714844 556.570312 L 476.714844 600.8125 L 468.738281 596.207031 L 468.738281 551.964844 " fill-opacity="1" fill-rule="nonzero"/><g clip-path="url(#040f6b095c)"><path fill="#5b79cc" d="M 665.554688 222.855469 L 539.363281 150.027344 C 534.328125 147.121094 529.816406 146.835938 526.894531 148.746094 C 524.730469 150.15625 507.210938 160.179688 507.210938 160.179688 L 523.433594 422.640625 C 523.433594 431.210938 530.601562 442.359375 539.363281 447.414062 L 659.832031 531.816406 C 659.832031 531.816406 674.351562 523.652344 676.804688 522.160156 C 679.460938 520.542969 681.484375 518.140625 681.484375 513.859375 L 681.484375 247.632812 C 681.484375 239.0625 674.320312 227.914062 665.554688 222.855469 " fill-opacity="1" fill-rule="nonzero"/></g><g clip-path="url(#44e751377b)"><path fill="#8094ff" d="M 665.554688 222.855469 L 645.753906 233.5625 L 662.296875 258.054688 L 681.484375 247.632812 C 681.484375 239.0625 674.320312 227.914062 665.554688 222.855469 " fill-opacity="1" fill-rule="nonzero"/></g><path fill="#ffffff" d="M 646.378906 245.71875 L 520.191406 172.894531 C 513.035156 168.757812 507.210938 171.066406 507.210938 178.03125 L 507.210938 435.40625 C 507.210938 442.371094 513.035156 451.398438 520.191406 455.53125 L 646.378906 528.359375 C 653.539062 532.492188 659.359375 530.1875 659.359375 523.21875 L 659.359375 265.839844 C 659.359375 258.875 653.539062 249.851562 646.378906 245.71875 " fill-opacity="1" fill-rule="nonzero"/><path fill="#1e2059" d="M 656.410156 511.046875 L 510.15625 426.644531 L 510.15625 180.558594 L 656.410156 264.96875 Z M 646.378906 233.925781 L 520.191406 161.097656 C 511.425781 156.035156 504.257812 158.914062 504.257812 167.480469 L 504.257812 433.707031 C 504.257812 442.273438 511.425781 453.421875 520.191406 458.476562 L 646.378906 531.308594 C 655.140625 536.367188 662.3125 533.492188 662.3125 524.921875 L 662.3125 258.695312 C 662.3125 250.128906 655.140625 238.980469 646.378906 233.925781 " fill-opacity="1" fill-rule="nonzero"/><path fill="#5b79cc" d="M 599.066406 220.332031 L 567.5 202.113281 C 566.441406 201.503906 565.585938 200.148438 565.585938 199.089844 C 565.585938 198.03125 566.441406 197.667969 567.5 198.277344 L 599.066406 216.496094 C 600.125 217.105469 600.984375 218.464844 600.984375 219.519531 C 600.984375 220.582031 600.125 220.941406 599.066406 220.332031 " fill-opacity="1" fill-rule="nonzero"/><path fill="#1b295b" d="M 672.628906 367.5625 C 671.40625 368.265625 670.417969 367.847656 670.417969 366.625 L 670.417969 329.277344 C 670.417969 328.058594 671.40625 326.492188 672.628906 325.789062 C 673.855469 325.085938 674.839844 325.503906 674.839844 326.722656 L 674.839844 364.070312 C 674.839844 365.296875 673.855469 366.855469 672.628906 367.5625 " fill-opacity="1" fill-rule="nonzero"/><path fill="#1b295b" d="M 672.628906 320.433594 C 671.40625 321.140625 670.417969 320.71875 670.417969 319.5 L 670.417969 282.152344 C 670.417969 280.933594 671.40625 279.371094 672.628906 278.664062 C 673.855469 277.960938 674.839844 278.378906 674.839844 279.597656 L 674.839844 316.945312 C 674.839844 318.167969 673.855469 319.730469 672.628906 320.433594 " fill-opacity="1" fill-rule="nonzero"/><path fill="#d5d9e5" d="M 647.496094 485.914062 L 637.230469 491.839844 L 516.527344 410.324219 L 506.257812 198.085938 L 516.527344 192.15625 L 647.496094 267.746094 L 647.496094 485.914062 " fill-opacity="1" fill-rule="nonzero"/><path fill="#ffffff" d="M 637.230469 491.839844 L 506.257812 416.25 L 506.257812 198.085938 L 637.230469 273.675781 L 637.230469 491.839844 " fill-opacity="1" fill-rule="nonzero"/><path fill="#dddddd" d="M 607.304688 315.171875 C 607.304688 326.882812 598.066406 335.601562 588.507812 335.40625 C 584.019531 335.3125 581.625 331.515625 576.132812 328.34375 C 558.914062 318.40625 544.957031 296.398438 544.957031 279.191406 C 544.957031 275.214844 542.019531 272.820312 543.378906 270.113281 C 547.894531 261.078125 562.886719 258.378906 576.132812 266.019531 C 593.347656 275.953125 607.304688 297.964844 607.304688 315.171875 " fill-opacity="1" fill-rule="nonzero"/><path fill="#cf433d" d="M 611.238281 431.175781 C 611.238281 436.339844 603.996094 441.03125 598.832031 438.050781 L 528.265625 386.527344 C 528.265625 381.363281 536.4375 378.65625 541.601562 381.640625 L 601.882812 416.429688 C 607.050781 419.410156 611.238281 426.015625 611.238281 431.175781 " fill-opacity="1" fill-rule="nonzero"/><path fill="#ee6a4a" d="M 607.128906 433.546875 C 607.128906 438.710938 602.945312 440.480469 597.777344 437.5 L 537.5 402.707031 C 532.328125 399.726562 528.144531 393.121094 528.144531 387.957031 C 528.144531 382.796875 532.328125 381.03125 537.5 384.011719 L 597.777344 418.800781 C 602.945312 421.78125 607.128906 428.382812 607.128906 433.546875 " fill-opacity="1" fill-rule="nonzero"/><path fill="#ffffff" d="M 554.199219 406.011719 L 554.199219 397.667969 L 555.300781 398.304688 L 555.300781 405.667969 L 559.414062 408.039062 L 559.414062 409.027344 L 554.199219 406.011719 " fill-opacity="1" fill-rule="nonzero"/><path fill="#ffffff" d="M 561.269531 407.074219 C 561.269531 407.847656 561.4375 408.523438 561.777344 409.105469 C 562.113281 409.683594 562.539062 410.125 563.054688 410.421875 C 563.5625 410.710938 563.984375 410.761719 564.320312 410.570312 C 564.660156 410.378906 564.828125 409.886719 564.828125 409.089844 C 564.828125 408.34375 564.660156 407.683594 564.320312 407.101562 C 563.980469 406.519531 563.554688 406.082031 563.054688 405.792969 C 562.539062 405.496094 562.113281 405.441406 561.777344 405.628906 C 561.4375 405.820312 561.269531 406.296875 561.269531 407.074219 Z M 560.21875 406.46875 C 560.21875 405.34375 560.527344 404.699219 561.152344 404.519531 C 561.671875 404.371094 562.308594 404.511719 563.054688 404.941406 C 563.886719 405.421875 564.566406 406.085938 565.09375 406.9375 C 565.617188 407.785156 565.882812 408.6875 565.882812 409.648438 C 565.882812 410.429688 565.769531 410.972656 565.535156 411.285156 C 565.296875 411.59375 564.960938 411.742188 564.515625 411.734375 C 564.070312 411.726562 563.582031 411.566406 563.054688 411.261719 C 562.207031 410.773438 561.523438 410.105469 561.003906 409.265625 C 560.476562 408.421875 560.21875 407.484375 560.21875 406.46875 " fill-opacity="1" fill-rule="nonzero"/><path fill="#ffffff" d="M 567.746094 410.703125 C 567.746094 411.496094 567.898438 412.167969 568.21875 412.710938 C 568.535156 413.253906 568.929688 413.667969 569.402344 413.941406 C 569.871094 414.210938 570.265625 414.257812 570.585938 414.082031 C 570.90625 413.902344 571.066406 413.429688 571.066406 412.65625 C 571.066406 411.914062 570.902344 411.261719 570.574219 410.691406 C 570.242188 410.128906 569.847656 409.710938 569.382812 409.445312 C 568.929688 409.179688 568.542969 409.144531 568.222656 409.332031 C 567.90625 409.519531 567.746094 409.972656 567.746094 410.703125 Z M 566.894531 413.847656 L 567.890625 414.570312 C 567.933594 414.898438 568.050781 415.1875 568.238281 415.441406 C 568.496094 415.777344 568.84375 416.070312 569.285156 416.324219 C 569.753906 416.597656 570.125 416.71875 570.382812 416.675781 C 570.636719 416.636719 570.816406 416.46875 570.90625 416.179688 C 570.957031 416 570.984375 415.578125 570.980469 414.90625 C 570.535156 415.179688 569.976562 415.117188 569.304688 414.734375 C 568.472656 414.253906 567.828125 413.582031 567.375 412.71875 C 566.917969 411.859375 566.695312 411.007812 566.695312 410.167969 C 566.695312 409.589844 566.796875 409.121094 567.003906 408.753906 C 567.214844 408.382812 567.515625 408.179688 567.914062 408.148438 C 568.308594 408.109375 568.777344 408.246094 569.308594 408.554688 C 570.027344 408.964844 570.613281 409.59375 571.078125 410.4375 L 571.078125 409.710938 L 572.023438 410.253906 L 572.023438 415.480469 C 572.023438 416.421875 571.929688 417.035156 571.738281 417.316406 C 571.542969 417.597656 571.238281 417.734375 570.824219 417.722656 C 570.40625 417.710938 569.894531 417.527344 569.289062 417.179688 C 568.566406 416.761719 567.984375 416.265625 567.539062 415.683594 C 567.097656 415.101562 566.882812 414.488281 566.894531 413.847656 " fill-opacity="1" fill-rule="nonzero"/><path fill="#ffffff" d="M 573.578125 417.199219 L 573.578125 411.152344 L 574.601562 411.742188 L 574.601562 417.789062 Z M 573.578125 410.03125 L 573.578125 408.851562 L 574.601562 409.445312 L 574.601562 410.621094 L 573.578125 410.03125 " fill-opacity="1" fill-rule="nonzero"/><path fill="#ffffff" d="M 576.160156 418.691406 L 576.160156 412.644531 L 577.085938 413.179688 L 577.085938 414.039062 C 577.53125 413.628906 578.171875 413.667969 579.011719 414.152344 C 579.371094 414.363281 579.710938 414.621094 580.015625 414.929688 C 580.320312 415.234375 580.550781 415.542969 580.703125 415.839844 C 580.851562 416.140625 580.960938 416.453125 581.019531 416.78125 C 581.058594 416.992188 581.078125 417.335938 581.078125 417.808594 L 581.078125 421.527344 L 580.054688 420.933594 L 580.054688 417.257812 C 580.054688 416.839844 580.011719 416.503906 579.929688 416.253906 C 579.855469 416 579.710938 415.753906 579.507812 415.511719 C 579.308594 415.273438 579.066406 415.070312 578.792969 414.917969 C 578.359375 414.664062 577.984375 414.582031 577.664062 414.675781 C 577.347656 414.769531 577.1875 415.207031 577.1875 415.984375 L 577.1875 419.28125 L 576.160156 418.691406 " fill-opacity="1" fill-rule="nonzero"/><path fill="#e7e7e7" d="M 536.113281 317.75 L 532.003906 320.121094 L 536.113281 335.054688 L 536.113281 336.972656 L 611.484375 385.210938 L 615.59375 382.84375 L 615.59375 363.621094 L 536.113281 317.75 " fill-opacity="1" fill-rule="nonzero"/><path fill="#e7e7e7" d="M 536.113281 366.34375 L 611.484375 414.582031 L 615.59375 412.214844 L 615.59375 392.992188 L 536.113281 347.121094 L 532.003906 349.492188 L 536.113281 366.34375 " fill-opacity="1" fill-rule="nonzero"/><path fill="#ffffff" d="M 611.484375 385.210938 L 532.003906 339.339844 L 532.003906 320.121094 L 611.484375 365.988281 L 611.484375 385.210938 " fill-opacity="1" fill-rule="nonzero"/><path fill="#ffffff" d="M 611.484375 414.582031 L 532.003906 368.710938 L 532.003906 349.492188 L 611.484375 395.359375 L 611.484375 414.582031 " fill-opacity="1" fill-rule="nonzero"/><path fill="#d3d3d3" d="M 611.484375 414.582031 L 532.003906 368.710938 L 532.003906 366.796875 L 611.484375 412.664062 L 611.484375 414.582031 " fill-opacity="1" fill-rule="nonzero"/><path fill="#d3d3d3" d="M 611.484375 385.210938 L 532.003906 339.339844 L 532.003906 337.425781 L 611.484375 383.296875 L 611.484375 385.210938 " fill-opacity="1" fill-rule="nonzero"/><path fill="#d3d3d3" d="M 606.027344 374.699219 L 537.464844 335.132812 L 537.464844 330.632812 L 606.027344 370.199219 L 606.027344 374.699219 " fill-opacity="1" fill-rule="nonzero"/><path fill="#d3d3d3" d="M 540.71875 365.914062 C 540.378906 365.914062 539.984375 365.796875 539.558594 365.554688 C 538.273438 364.8125 537.234375 363.171875 537.234375 361.890625 C 537.234375 361.027344 537.699219 360.550781 538.402344 360.550781 C 538.738281 360.550781 539.136719 360.664062 539.558594 360.90625 C 540.84375 361.648438 541.886719 363.289062 541.886719 364.574219 C 541.886719 365.429688 541.414062 365.914062 540.71875 365.914062 " fill-opacity="1" fill-rule="nonzero"/><path fill="#d3d3d3" d="M 549.871094 371.195312 C 549.53125 371.195312 549.136719 371.078125 548.707031 370.835938 C 547.425781 370.097656 546.386719 368.453125 546.386719 367.171875 C 546.386719 366.308594 546.851562 365.832031 547.546875 365.832031 C 547.890625 365.832031 548.289062 365.949219 548.707031 366.1875 C 549.996094 366.929688 551.039062 368.570312 551.039062 369.851562 C 551.039062 370.71875 550.566406 371.195312 549.871094 371.195312 " fill-opacity="1" fill-rule="nonzero"/><path fill="#d3d3d3" d="M 559.023438 376.476562 C 558.683594 376.476562 558.28125 376.363281 557.863281 376.121094 C 556.578125 375.378906 555.535156 373.734375 555.535156 372.453125 C 555.535156 371.589844 556.003906 371.113281 556.699219 371.113281 C 557.042969 371.113281 557.4375 371.230469 557.863281 371.472656 C 559.148438 372.214844 560.183594 373.851562 560.183594 375.132812 C 560.183594 375.996094 559.71875 376.476562 559.023438 376.476562 " fill-opacity="1" fill-rule="nonzero"/><path fill="#d3d3d3" d="M 568.175781 381.757812 C 567.835938 381.757812 567.433594 381.644531 567.011719 381.402344 C 565.730469 380.660156 564.6875 379.015625 564.6875 377.734375 C 564.6875 376.875 565.15625 376.390625 565.851562 376.390625 C 566.195312 376.390625 566.589844 376.507812 567.011719 376.753906 C 568.300781 377.496094 569.335938 379.132812 569.335938 380.417969 C 569.335938 381.277344 568.871094 381.757812 568.175781 381.757812 " fill-opacity="1" fill-rule="nonzero"/><path fill="#d3d3d3" d="M 577.324219 387.042969 C 576.988281 387.042969 576.585938 386.925781 576.164062 386.683594 C 574.882812 385.941406 573.839844 384.300781 573.839844 383.015625 C 573.839844 382.15625 574.308594 381.671875 575.003906 381.671875 C 575.347656 381.671875 575.742188 381.789062 576.164062 382.035156 C 577.453125 382.777344 578.488281 384.414062 578.488281 385.699219 C 578.488281 386.558594 578.019531 387.042969 577.324219 387.042969 " fill-opacity="1" fill-rule="nonzero"/><path fill="#d3d3d3" d="M 586.476562 392.324219 C 586.132812 392.324219 585.738281 392.207031 585.316406 391.960938 C 584.035156 391.222656 582.992188 389.582031 582.992188 388.296875 C 582.992188 387.4375 583.460938 386.953125 584.15625 386.953125 C 584.5 386.953125 584.894531 387.070312 585.316406 387.316406 C 586.605469 388.058594 587.640625 389.699219 587.640625 390.980469 C 587.640625 391.839844 587.171875 392.324219 586.476562 392.324219 " fill-opacity="1" fill-rule="nonzero"/><path fill="#d3d3d3" d="M 595.628906 397.605469 C 595.285156 397.605469 594.890625 397.488281 594.46875 397.242188 C 593.183594 396.507812 592.144531 394.863281 592.144531 393.578125 C 592.144531 392.71875 592.613281 392.238281 593.308594 392.238281 C 593.648438 392.238281 594.046875 392.351562 594.46875 392.597656 C 595.75 393.339844 596.792969 394.980469 596.792969 396.261719 C 596.792969 397.121094 596.324219 397.605469 595.628906 397.605469 " fill-opacity="1" fill-rule="nonzero"/><path fill="#d3d3d3" d="M 604.78125 402.886719 C 604.4375 402.886719 604.042969 402.769531 603.621094 402.523438 C 602.335938 401.789062 601.296875 400.144531 601.296875 398.863281 C 601.296875 398 601.761719 397.519531 602.460938 397.519531 C 602.800781 397.519531 603.199219 397.632812 603.621094 397.878906 C 604.902344 398.617188 605.945312 400.261719 605.945312 401.542969 C 605.945312 402.40625 605.476562 402.886719 604.78125 402.886719 " fill-opacity="1" fill-rule="nonzero"/><path fill="#f0f0f0" d="M 602.917969 317.410156 C 602.917969 334.621094 588.960938 340.515625 571.742188 330.578125 C 554.527344 320.644531 540.570312 298.640625 540.570312 281.425781 C 540.570312 264.21875 554.527344 258.320312 571.742188 268.257812 C 588.960938 278.191406 602.917969 300.199219 602.917969 317.410156 " fill-opacity="1" fill-rule="nonzero"/><g clip-path="url(#6014317f69)"><g clip-path="url(#977188bc5d)"><path fill="#edab95" d="M 556.414062 324.554688 L 557.617188 318.292969 C 557.953125 316.554688 556.90625 314.15625 555.277344 312.941406 C 553.652344 311.722656 552.066406 312.144531 551.730469 313.878906 L 550.351562 321.054688 L 556.414062 324.554688 " fill-opacity="1" fill-rule="nonzero"/></g></g><g clip-path="url(#6c0ecf75ea)"><g clip-path="url(#f6f4024936)"><path fill="#323232" d="M 566.105469 307.675781 C 552.914062 300.28125 551.195312 309.71875 550.667969 312.453125 L 549.769531 317.089844 L 558.316406 323.507812 L 559.667969 316.527344 C 560.144531 314.050781 566.105469 307.675781 566.105469 307.675781 " fill-opacity="1" fill-rule="nonzero"/></g></g><g clip-path="url(#c7fa166dcd)"><g clip-path="url(#8528e0d3f5)"><path fill="#edab95" d="M 587.074219 342.246094 L 593.136719 345.746094 L 591.753906 336.980469 C 591.421875 334.859375 589.835938 332.605469 588.210938 331.949219 C 586.585938 331.285156 585.539062 332.472656 585.871094 334.601562 L 587.074219 342.246094 " fill-opacity="1" fill-rule="nonzero"/></g></g><g clip-path="url(#d310f045f0)"><g clip-path="url(#940ee02933)"><path fill="#323232" d="M 577.363281 314.167969 C 590.554688 321.996094 592.296875 333.4375 592.820312 336.785156 L 593.71875 342.453125 L 585.171875 339.003906 L 583.824219 330.46875 C 583.34375 327.441406 577.363281 314.167969 577.363281 314.167969 " fill-opacity="1" fill-rule="nonzero"/></g></g><g clip-path="url(#1daefcf6be)"><g clip-path="url(#a61e4ace93)"><path fill="#323232" d="M 584.269531 340.628906 L 584.269531 329.347656 C 584.269531 322.429688 578.664062 313.585938 571.742188 309.59375 C 564.824219 305.601562 559.21875 307.972656 559.21875 314.886719 L 559.21875 326.167969 L 584.269531 340.628906 " fill-opacity="1" fill-rule="nonzero"/></g></g><g clip-path="url(#3f53a7aee5)"><g clip-path="url(#3231d7b1bd)"><path fill="#f3b39d" d="M 566.277344 289.875 C 566.277344 291.523438 565.335938 292.3125 563.6875 291.363281 C 562.042969 290.414062 560.710938 288.3125 560.710938 286.664062 C 560.710938 285.019531 561.410156 284.09375 563.058594 285.039062 C 564.703125 285.992188 566.277344 288.230469 566.277344 289.875 " fill-opacity="1" fill-rule="nonzero"/></g></g><g clip-path="url(#ae42732b2e)"><g clip-path="url(#854409069a)"><path fill="#e8a896" d="M 565.105469 289.203125 C 565.105469 290.289062 564.617188 290.890625 563.53125 290.265625 C 562.445312 289.636719 561.5625 288.246094 561.5625 287.15625 C 561.5625 286.066406 561.808594 285.332031 562.898438 285.960938 C 563.984375 286.589844 565.105469 288.113281 565.105469 289.203125 " fill-opacity="1" fill-rule="nonzero"/></g></g><g clip-path="url(#f04d33af45)"><g clip-path="url(#abd39cf074)"><path fill="#f3b39d" d="M 582.761719 299.394531 C 582.761719 301.039062 581.429688 301.601562 579.785156 300.652344 C 578.140625 299.703125 577.203125 297.828125 577.203125 296.183594 C 577.203125 294.535156 578.769531 294.113281 580.414062 295.0625 C 582.0625 296.011719 582.761719 297.75 582.761719 299.394531 " fill-opacity="1" fill-rule="nonzero"/></g></g><g clip-path="url(#c57681ccee)"><g clip-path="url(#6b801ca459)"><path fill="#e8a896" d="M 581.914062 298.902344 C 581.914062 299.992188 581.03125 300.363281 579.945312 299.734375 C 578.855469 299.109375 578.367188 297.945312 578.367188 296.859375 C 578.367188 295.769531 579.488281 295.535156 580.574219 296.160156 C 581.664062 296.789062 581.914062 297.816406 581.914062 298.902344 " fill-opacity="1" fill-rule="nonzero"/></g></g><g clip-path="url(#b114928758)"><g clip-path="url(#068df0f2f1)"><path fill="#181818" d="M 562.15625 280.210938 L 562.15625 283.699219 C 562.15625 286.757812 563.21875 288.835938 564.535156 289.59375 L 564.535156 281.582031 L 562.15625 280.210938 " fill-opacity="1" fill-rule="nonzero"/></g></g><g clip-path="url(#7067463b6d)"><g clip-path="url(#c7270550ad)"><path fill="#181818" d="M 578.941406 289.898438 L 578.941406 297.910156 C 580.253906 298.667969 581.316406 297.445312 581.316406 294.757812 L 581.316406 291.269531 L 578.941406 289.898438 " fill-opacity="1" fill-rule="nonzero"/></g></g><g clip-path="url(#c585dcf2dc)"><g clip-path="url(#c27745bccb)"><path fill="#edab95" d="M 568.074219 299.953125 L 568.074219 306.144531 C 568.074219 308.167969 569.714844 310.757812 571.738281 311.929688 C 573.761719 313.09375 575.398438 312.402344 575.398438 310.378906 L 575.398438 304.183594 L 568.074219 299.953125 " fill-opacity="1" fill-rule="nonzero"/></g></g><g clip-path="url(#8930e55ca0)"><g clip-path="url(#a8e9a9f279)"><path fill="#de897c" d="M 568.074219 299.953125 L 568.074219 304.335938 C 569.183594 305.515625 570.425781 306.53125 571.738281 307.289062 C 573.050781 308.046875 574.296875 308.464844 575.398438 308.570312 L 575.398438 304.183594 L 568.074219 299.953125 " fill-opacity="1" fill-rule="nonzero"/></g></g><g clip-path="url(#6a61569dc1)"><g clip-path="url(#8adc2f931a)"><path fill="#fbb89e" d="M 571.738281 280.550781 C 567.074219 277.859375 563.292969 279.457031 563.292969 284.121094 L 563.292969 293.195312 C 563.292969 297.855469 567.074219 303.8125 571.738281 306.507812 C 576.398438 309.195312 580.179688 307.601562 580.179688 302.9375 L 580.179688 293.863281 C 580.179688 289.203125 576.398438 283.242188 571.738281 280.550781 " fill-opacity="1" fill-rule="nonzero"/></g></g><g clip-path="url(#e920b026da)"><g clip-path="url(#62e63c5f27)"><path fill="#282828" d="M 577.386719 314.246094 L 571.738281 313.640625 L 566.085938 307.726562 L 567.164062 304.871094 L 570.335938 307.886719 L 571.738281 310.308594 L 573.136719 309.5 L 576.3125 310.148438 L 577.386719 314.246094 " fill-opacity="1" fill-rule="nonzero"/></g></g><g clip-path="url(#029dd15218)"><g clip-path="url(#9b8af3926d)"><path fill="#323232" d="M 580.460938 281.582031 C 580.679688 285.414062 577.777344 282.9375 577.777344 282.9375 C 579.882812 283.007812 577.722656 278.820312 577.722656 278.820312 C 567.433594 271.875 564.550781 274.335938 563.050781 276.625 C 562.589844 277.332031 562.15625 278.675781 562.15625 280.210938 C 562.15625 282.039062 562.15625 283.433594 562.15625 283.433594 C 562.15625 283.433594 563.292969 278.585938 572.070312 283.738281 C 575.070312 285.5 579.4375 289.460938 581.316406 294.492188 L 581.316406 290.890625 C 584.988281 287.472656 580.460938 281.582031 580.460938 281.582031 " fill-opacity="1" fill-rule="nonzero"/></g></g><path fill="#1e8061" d="M 621.011719 274.59375 C 618.429688 273.109375 615.132812 273.257812 612.949219 275.1875 L 624.109375 292.210938 C 626.425781 291.871094 628.726562 289.03125 628.726562 286.765625 C 628.726562 282.503906 625.269531 277.054688 621.011719 274.59375 " fill-opacity="1" fill-rule="nonzero"/><path fill="#39bc92" d="M 618.953125 275.785156 C 614.691406 273.324219 611.238281 274.785156 611.238281 279.046875 C 611.238281 283.304688 614.691406 288.753906 618.953125 291.210938 C 623.21875 293.671875 626.675781 292.210938 626.675781 287.949219 C 626.675781 283.691406 623.21875 278.242188 618.953125 275.785156 " fill-opacity="1" fill-rule="nonzero"/><path fill="#21745a" d="M 626.667969 288.035156 C 626.675781 288.007812 626.675781 287.980469 626.675781 287.949219 C 626.675781 287.9375 626.675781 287.921875 626.675781 287.90625 L 626.675781 287.949219 C 626.675781 287.980469 626.675781 288.007812 626.667969 288.035156 " fill-opacity="1" fill-rule="nonzero"/><path fill="#38a784" d="M 622.808594 292.40625 C 622.332031 292.40625 621.824219 292.339844 621.289062 292.199219 L 618.34375 287.917969 L 615.367188 280.804688 L 618.863281 284.722656 L 624.3125 284.550781 L 626.675781 287.90625 C 626.675781 287.921875 626.675781 287.9375 626.675781 287.949219 C 626.675781 287.980469 626.675781 288.007812 626.667969 288.035156 C 626.640625 290.84375 625.097656 292.40625 622.808594 292.40625 " fill-opacity="1" fill-rule="nonzero"/><path fill="#ffffff" d="M 618.34375 287.917969 L 614.0625 281.453125 L 615.367188 280.804688 L 618.207031 285.089844 L 622.871094 282.457031 L 624.3125 284.550781 L 618.34375 287.917969 " fill-opacity="1" fill-rule="nonzero"/><path fill="#fd7415" d="M 412.941406 273.972656 C 413.96875 273 416.078125 271.910156 413.441406 270.328125 C 410.929688 268.816406 411.578125 266.0625 412.347656 263.253906 C 413.140625 260.300781 415.480469 258.378906 416.703125 257.394531 C 417.941406 256.414062 419.128906 254.515625 417.773438 252.847656 C 416.128906 250.828125 417.109375 248.167969 417.101562 248.167969 C 419.460938 239.226562 423.222656 233.964844 427.183594 231.496094 C 431.15625 229.066406 438.796875 229.011719 442.449219 230.417969 C 446.082031 231.875 450.074219 235.136719 450.980469 243.644531 C 450.976562 243.644531 451.5625 245.859375 450.375 248.113281 C 449.167969 250.359375 449.644531 252.582031 450.75 253.246094 C 451.832031 253.917969 452.859375 255.421875 453.179688 258.222656 C 453.488281 260.882812 451.792969 262.957031 450.046875 263.292969 C 446.953125 263.878906 449.707031 267.386719 451.910156 268.273438 C 453.769531 269.019531 456.246094 270.308594 456.59375 273.914062 C 456.988281 277.53125 451.691406 280.628906 451.664062 280.617188 C 444.757812 283.414062 437.714844 285.804688 430.558594 287.75 C 423.570312 287.691406 419.617188 290.628906 413.027344 289.636719 C 413 289.648438 407.550781 282.046875 408.5625 278.242188 C 409.519531 274.464844 411.132812 275.671875 412.941406 273.972656 " fill-opacity="1" fill-rule="nonzero"/><path fill="#1a1a1a" d="M 462.144531 439.609375 C 459.910156 441.269531 453.828125 443.84375 449.324219 440.460938 C 447.398438 439.015625 446.261719 434.417969 444.375 430.867188 L 444.316406 435.398438 C 444.074219 436.480469 443.746094 437.375 442.644531 437.1875 C 441.785156 437.035156 441.238281 435.976562 441.292969 435.101562 C 441.386719 433.722656 441.140625 430.507812 440.214844 429.335938 C 438.695312 427.414062 436.804688 421.167969 441.09375 417.714844 L 455.984375 431.722656 L 462.214844 436.769531 C 463.128906 437.507812 463.085938 438.910156 462.144531 439.609375 " fill-opacity="1" fill-rule="nonzero"/><path fill="#ffcdbc" d="M 452.980469 368.566406 C 452.980469 368.566406 446.285156 415.984375 449.121094 420.632812 C 451.953125 425.289062 456.40625 431.5625 456.613281 433.382812 C 456.8125 435.203125 452.5625 436.820312 449.527344 433.382812 C 446.488281 429.941406 439.609375 422.65625 440.824219 418.8125 C 442.039062 414.96875 441.167969 406.535156 439.914062 400.804688 C 438.9375 396.347656 436.574219 373.613281 438.800781 366.371094 L 452.980469 368.566406 " fill-opacity="1" fill-rule="nonzero"/><path fill="#1a1a1a" d="M 445.101562 447.351562 C 442.867188 449.011719 436.785156 451.582031 432.289062 448.203125 C 430.355469 446.757812 429.226562 442.15625 427.335938 438.609375 L 427.277344 443.144531 C 427.03125 444.226562 426.703125 445.113281 425.609375 444.925781 C 424.746094 444.777344 424.195312 443.714844 424.257812 442.84375 C 424.347656 441.460938 424.101562 438.246094 423.175781 437.078125 C 421.660156 435.152344 419.769531 428.910156 424.050781 425.457031 L 438.945312 439.460938 L 445.171875 444.511719 C 446.089844 445.25 446.050781 446.648438 445.101562 447.351562 " fill-opacity="1" fill-rule="nonzero"/><path fill="#ffcdbc" d="M 435.945312 376.308594 C 435.945312 376.308594 429.25 423.722656 432.082031 428.375 C 434.917969 433.03125 439.367188 439.304688 439.570312 441.125 C 439.773438 442.945312 435.523438 444.566406 432.488281 441.125 C 429.449219 437.683594 422.570312 430.398438 423.78125 426.558594 C 425 422.714844 424.125 414.273438 422.871094 408.546875 C 421.894531 404.085938 419.53125 381.355469 421.757812 374.117188 L 435.945312 376.308594 " fill-opacity="1" fill-rule="nonzero"/><path fill="#ffcdbc" d="M 455.070312 300.738281 C 458.128906 303.820312 471.269531 314.320312 471.269531 314.320312 C 471.269531 314.320312 475.566406 330.039062 483.636719 323.902344 C 491.726562 317.757812 474.953125 310.699219 474.953125 310.699219 C 474.953125 310.699219 463.835938 297.84375 461.734375 295.714844 C 460.390625 294.359375 458.367188 282.222656 454.058594 274.121094 C 451.601562 269.496094 447.835938 265.957031 444.445312 267.0625 C 441.164062 268.128906 439.941406 270.585938 441.683594 276.035156 C 444.59375 285.132812 453.164062 298.808594 455.070312 300.738281 " fill-opacity="1" fill-rule="nonzero"/><path fill="#d3d6df" d="M 468.609375 315.390625 C 468.609375 315.390625 457.691406 305.511719 454.730469 303.019531 C 451.765625 300.53125 445.914062 289.21875 441.96875 280.835938 C 438.027344 272.457031 440.28125 267.632812 444.21875 265.394531 C 448.15625 263.160156 453.957031 269.65625 455.117188 273.148438 C 456.09375 276.101562 459.492188 287.246094 460.460938 289.914062 C 461.4375 292.578125 475.179688 307.421875 475.179688 307.421875 C 475.179688 307.421875 473.859375 312.335938 468.609375 315.390625 " fill-opacity="1" fill-rule="nonzero"/><path fill="#e75f84" d="M 424.175781 320.558594 C 424.175781 320.558594 416.105469 335.953125 418.457031 349.179688 C 420.804688 362.402344 418.988281 377.289062 418.988281 377.289062 C 418.988281 377.289062 441.796875 388.203125 454.46875 374.117188 C 454.46875 374.117188 458.574219 331.933594 450.855469 316.367188 L 424.175781 320.558594 " fill-opacity="1" fill-rule="nonzero"/><path fill="#ecedf4" d="M 417.15625 277.183594 C 417.15625 277.183594 422.929688 270.183594 431.058594 267.65625 C 439.183594 265.128906 448.867188 264.015625 451.570312 267.65625 C 454.265625 271.296875 453.320312 280.0625 453.320312 282.628906 L 455.4375 287.539062 C 456.390625 289.753906 456.449219 292.25 455.59375 294.503906 L 454.039062 298.164062 L 450.855469 316.367188 C 450.855469 316.367188 441.917969 330.625 424.175781 320.558594 C 424.175781 320.558594 424.28125 313.964844 423.820312 307.984375 L 422.960938 307.269531 C 411.011719 285.261719 417.15625 277.183594 417.15625 277.183594 " fill-opacity="1" fill-rule="nonzero"/><path fill="#eeb8a7" d="M 436.753906 258.214844 L 440.503906 265.59375 L 441.5 269.914062 L 432.1875 273.015625 L 428.089844 268.734375 C 428.089844 268.734375 430.769531 262.296875 428.914062 256.996094 L 436.753906 258.214844 " fill-opacity="1" fill-rule="nonzero"/><path fill="#e3e3e3" d="M 440.503906 265.59375 C 440.503906 265.59375 440.503906 271.863281 428.089844 268.734375 L 424.734375 270.652344 C 424.878906 274.390625 439.183594 274.808594 442.710938 270.125 C 446.234375 265.445312 443.816406 264.90625 440.503906 265.59375 " fill-opacity="1" fill-rule="nonzero"/><path fill="#ffcdbc" d="M 449.414062 245.925781 C 449.414062 245.925781 448.398438 261.292969 442.683594 265.75 C 439.863281 267.953125 429.835938 261.519531 428.675781 256.550781 C 428.097656 254.085938 424.5625 237.226562 432.273438 235.871094 C 443.875 233.832031 449.582031 240.253906 449.414062 245.925781 " fill-opacity="1" fill-rule="nonzero"/><path fill="#df6116" d="M 427.929688 252.585938 C 427.929688 252.585938 433.964844 248.628906 434.550781 241.085938 C 434.550781 241.085938 434.289062 245.269531 442.464844 246.058594 C 449.65625 246.75 448.023438 249.101562 448.683594 251.636719 C 448.683594 251.636719 453.199219 234.996094 441.167969 232.792969 C 434.21875 231.523438 423.210938 233.445312 427.929688 252.585938 " fill-opacity="1" fill-rule="nonzero"/><path fill="#ffcdbc" d="M 428.605469 250.398438 C 428.746094 252.28125 430.136719 253.710938 431.699219 253.59375 C 433.269531 253.476562 434.421875 251.851562 434.28125 249.96875 C 434.140625 248.089844 432.757812 246.65625 431.1875 246.773438 C 429.621094 246.890625 428.464844 248.511719 428.605469 250.398438 " fill-opacity="1" fill-rule="nonzero"/><path fill="#b6bcca" d="M 435.683594 324.4375 C 445.253906 324.4375 451.191406 319.332031 451.890625 318.804688 L 451.160156 314.613281 C 451.160156 314.613281 447.75 317.539062 443.09375 319.148438 C 437.085938 321.21875 429.839844 320.800781 424.375 316.988281 L 423.78125 321.359375 C 427.601562 324.015625 431.976562 324.4375 435.683594 324.4375 " fill-opacity="1" fill-rule="nonzero"/><path fill="#5b79cc" d="M 466.101562 372.132812 C 459.914062 372.132812 454.902344 367.121094 454.902344 360.9375 L 454.902344 294.695312 C 454.902344 288.507812 459.914062 283.496094 466.101562 283.496094 C 472.285156 283.496094 477.300781 288.507812 477.300781 294.695312 L 477.300781 360.9375 C 477.300781 367.121094 472.285156 372.132812 466.101562 372.132812 " fill-opacity="1" fill-rule="nonzero"/><path fill="#ffffff" d="M 461.328125 309.582031 L 473.367188 309.582031 L 473.367188 311.171875 L 462.75 311.171875 L 462.75 317.101562 L 461.328125 317.101562 L 461.328125 309.582031 " fill-opacity="1" fill-rule="nonzero"/><path fill="#ffffff" d="M 465.6875 319.777344 C 464.570312 319.777344 463.734375 320.019531 463.179688 320.507812 C 462.621094 320.996094 462.34375 321.605469 462.34375 322.347656 C 462.34375 323.082031 462.628906 323.691406 463.1875 324.175781 C 463.746094 324.664062 464.59375 324.90625 465.742188 324.90625 C 466.816406 324.90625 467.632812 324.664062 468.191406 324.175781 C 468.746094 323.683594 469.023438 323.070312 469.023438 322.347656 C 469.023438 321.605469 468.746094 320.996094 468.191406 320.507812 C 467.644531 320.019531 466.808594 319.777344 465.6875 319.777344 Z M 465.6875 318.253906 C 467.304688 318.253906 468.503906 318.707031 469.277344 319.601562 C 469.925781 320.355469 470.25 321.269531 470.25 322.347656 C 470.25 323.546875 469.855469 324.523438 469.066406 325.28125 C 468.28125 326.046875 467.195312 326.429688 465.8125 326.429688 C 464.6875 326.429688 463.804688 326.257812 463.164062 325.921875 C 462.519531 325.582031 462.023438 325.09375 461.664062 324.453125 C 461.308594 323.808594 461.128906 323.109375 461.128906 322.347656 C 461.128906 321.125 461.523438 320.136719 462.304688 319.386719 C 463.085938 318.636719 464.214844 318.253906 465.6875 318.253906 " fill-opacity="1" fill-rule="nonzero"/><path fill="#ffffff" d="M 465.84375 329.113281 C 464.699219 329.113281 463.867188 329.339844 463.339844 329.792969 C 462.816406 330.25 462.550781 330.816406 462.550781 331.503906 C 462.550781 332.179688 462.808594 332.746094 463.335938 333.207031 C 463.859375 333.667969 464.679688 333.894531 465.796875 333.894531 C 466.863281 333.894531 467.667969 333.660156 468.210938 333.1875 C 468.75 332.714844 469.023438 332.140625 469.023438 331.472656 C 469.023438 330.816406 468.753906 330.257812 468.21875 329.796875 C 467.691406 329.339844 466.894531 329.113281 465.84375 329.113281 Z M 460.601562 327.886719 L 460.390625 329.324219 C 459.945312 329.386719 459.625 329.550781 459.425781 329.828125 C 459.148438 330.191406 459.011719 330.691406 459.011719 331.328125 C 459.011719 332.015625 459.148438 332.539062 459.425781 332.910156 C 459.695312 333.28125 460.082031 333.535156 460.570312 333.667969 C 460.875 333.742188 461.503906 333.777344 462.46875 333.773438 C 461.707031 333.125 461.328125 332.324219 461.328125 331.363281 C 461.328125 330.160156 461.757812 329.234375 462.628906 328.578125 C 463.492188 327.921875 464.527344 327.59375 465.742188 327.59375 C 466.566406 327.59375 467.335938 327.742188 468.042969 328.042969 C 468.746094 328.34375 469.289062 328.78125 469.671875 329.351562 C 470.054688 329.925781 470.25 330.597656 470.25 331.371094 C 470.25 332.398438 469.832031 333.242188 469 333.914062 L 470.050781 333.914062 L 470.050781 335.277344 L 462.511719 335.277344 C 461.152344 335.277344 460.191406 335.136719 459.621094 334.863281 C 459.058594 334.585938 458.609375 334.144531 458.285156 333.550781 C 457.949219 332.949219 457.785156 332.210938 457.785156 331.332031 C 457.785156 330.296875 458.019531 329.457031 458.492188 328.816406 C 458.960938 328.175781 459.664062 327.863281 460.601562 327.886719 " fill-opacity="1" fill-rule="nonzero"/><path fill="#ffffff" d="M 461.328125 337.515625 L 470.050781 337.515625 L 470.050781 338.996094 L 461.328125 338.996094 Z M 471.667969 337.515625 L 473.367188 337.515625 L 473.367188 338.996094 L 471.667969 338.996094 L 471.667969 337.515625 " fill-opacity="1" fill-rule="nonzero"/><path fill="#ffffff" d="M 461.328125 341.242188 L 470.050781 341.242188 L 470.050781 342.574219 L 468.808594 342.574219 C 469.765625 343.214844 470.25 344.140625 470.25 345.351562 C 470.25 345.875 470.15625 346.359375 469.960938 346.796875 C 469.773438 347.238281 469.527344 347.570312 469.21875 347.785156 C 468.910156 348.007812 468.550781 348.15625 468.125 348.246094 C 467.855469 348.300781 467.375 348.332031 466.6875 348.332031 L 461.328125 348.332031 L 461.328125 346.851562 L 466.632812 346.851562 C 467.234375 346.851562 467.683594 346.796875 467.984375 346.679688 C 468.28125 346.566406 468.519531 346.359375 468.699219 346.066406 C 468.878906 345.777344 468.96875 345.429688 468.96875 345.035156 C 468.96875 344.40625 468.765625 343.867188 468.367188 343.40625 C 467.964844 342.953125 467.207031 342.722656 466.09375 342.722656 L 461.328125 342.722656 L 461.328125 341.242188 " fill-opacity="1" fill-rule="nonzero"/><path fill="#ffcdbc" d="M 450.085938 304.929688 C 450.085938 304.929688 436.941406 306.402344 431.820312 307.105469 L 435.0625 314.613281 C 441.40625 312.929688 450.992188 310.015625 450.992188 310.015625 C 450.992188 310.015625 466.382812 315.367188 465.890625 305.242188 C 465.402344 295.097656 450.085938 304.929688 450.085938 304.929688 " fill-opacity="1" fill-rule="nonzero"/><path fill="#d3d6df" d="M 416.179688 277.417969 C 424.019531 273.949219 426.261719 282.234375 426.816406 288.585938 C 427.375 294.933594 425.320312 306.070312 426.933594 306.4375 C 429.113281 306.925781 447.914062 303.539062 447.914062 303.539062 C 447.914062 303.539062 453.035156 308.988281 448.582031 312.519531 C 448.582031 312.519531 420.003906 320.996094 417.738281 316.703125 C 415.480469 312.410156 409.273438 280.476562 416.179688 277.417969 " fill-opacity="1" fill-rule="nonzero"/><path fill="#323232" d="M 510.839844 469.074219 L 527.742188 478.828125 L 460.84375 517.4375 L 443.941406 507.683594 L 510.839844 469.074219 " fill-opacity="1" fill-rule="nonzero"/><path fill="#ffffff" d="M 474.359375 503.941406 L 465.277344 498.699219 L 466.472656 498.003906 L 474.484375 502.625 L 478.960938 500.042969 L 480.03125 500.664062 L 474.359375 503.941406 " fill-opacity="1" fill-rule="nonzero"/><path fill="#ffffff" d="M 478.761719 497.597656 C 479.609375 498.085938 480.421875 498.34375 481.210938 498.375 C 481.992188 498.402344 482.664062 498.257812 483.222656 497.9375 C 483.777344 497.617188 484.027344 497.226562 483.976562 496.773438 C 483.917969 496.316406 483.464844 495.84375 482.597656 495.339844 C 481.78125 494.871094 480.984375 494.625 480.195312 494.59375 C 479.40625 494.566406 478.734375 494.710938 478.183594 495.03125 C 477.625 495.351562 477.371094 495.734375 477.425781 496.191406 C 477.472656 496.640625 477.921875 497.109375 478.761719 497.597656 Z M 477.617188 498.261719 C 476.402344 497.558594 475.832031 496.84375 475.925781 496.109375 C 476.007812 495.503906 476.453125 494.964844 477.265625 494.496094 C 478.167969 493.976562 479.203125 493.71875 480.375 493.726562 C 481.539062 493.742188 482.640625 494.046875 483.6875 494.652344 C 484.535156 495.140625 485.074219 495.59375 485.304688 496.023438 C 485.539062 496.449219 485.542969 496.882812 485.328125 497.3125 C 485.113281 497.75 484.71875 498.132812 484.140625 498.460938 C 483.21875 498.996094 482.179688 499.257812 481.019531 499.242188 C 479.863281 499.226562 478.726562 498.902344 477.617188 498.261719 " fill-opacity="1" fill-rule="nonzero"/><path fill="#ffffff" d="M 485.6875 493.464844 C 486.554688 493.964844 487.351562 494.230469 488.09375 494.261719 C 488.835938 494.289062 489.460938 494.160156 489.976562 493.859375 C 490.488281 493.5625 490.722656 493.199219 490.675781 492.773438 C 490.628906 492.347656 490.183594 491.886719 489.335938 491.402344 C 488.535156 490.9375 487.746094 490.6875 486.980469 490.660156 C 486.214844 490.628906 485.582031 490.761719 485.078125 491.050781 C 484.582031 491.335938 484.359375 491.699219 484.417969 492.128906 C 484.472656 492.5625 484.894531 493.007812 485.6875 493.464844 Z M 488.71875 496.28125 L 489.960938 495.746094 C 490.347656 495.914062 490.714844 495.980469 491.074219 495.953125 C 491.554688 495.910156 492.039062 495.75 492.515625 495.476562 C 493.035156 495.175781 493.328125 494.886719 493.40625 494.605469 C 493.476562 494.328125 493.382812 494.050781 493.105469 493.777344 C 492.941406 493.613281 492.488281 493.324219 491.757812 492.90625 C 491.839844 493.515625 491.519531 494.03125 490.792969 494.453125 C 489.890625 494.976562 488.863281 495.191406 487.714844 495.101562 C 486.566406 495.007812 485.539062 494.699219 484.625 494.175781 C 483.992188 493.8125 483.527344 493.410156 483.226562 492.976562 C 482.921875 492.539062 482.84375 492.113281 482.984375 491.695312 C 483.128906 491.277344 483.492188 490.902344 484.074219 490.566406 C 484.847656 490.117188 485.800781 489.929688 486.933594 490 L 486.140625 489.542969 L 487.171875 488.949219 L 492.859375 492.234375 C 493.882812 492.824219 494.503906 493.304688 494.722656 493.671875 C 494.945312 494.035156 494.949219 494.421875 494.746094 494.828125 C 494.539062 495.230469 494.109375 495.621094 493.445312 496.003906 C 492.664062 496.457031 491.851562 496.722656 491.015625 496.796875 C 490.179688 496.871094 489.414062 496.699219 488.71875 496.28125 " fill-opacity="1" fill-rule="nonzero"/><path fill="#ffffff" d="M 495.441406 491.773438 L 488.863281 487.972656 L 489.976562 487.328125 L 496.554688 491.125 Z M 487.640625 487.265625 L 486.359375 486.53125 L 487.472656 485.882812 L 488.753906 486.625 L 487.640625 487.265625 " fill-opacity="1" fill-rule="nonzero"/><path fill="#ffffff" d="M 498.253906 490.148438 L 491.675781 486.351562 L 492.679688 485.769531 L 493.617188 486.308594 C 493.375 485.613281 493.710938 485.003906 494.625 484.472656 C 495.019531 484.25 495.457031 484.078125 495.929688 483.96875 C 496.40625 483.859375 496.84375 483.820312 497.242188 483.863281 C 497.636719 483.898438 498.023438 483.992188 498.410156 484.136719 C 498.660156 484.230469 499.039062 484.425781 499.554688 484.726562 L 503.605469 487.0625 L 502.484375 487.703125 L 498.484375 485.394531 C 498.03125 485.132812 497.648438 484.960938 497.335938 484.882812 C 497.019531 484.804688 496.691406 484.789062 496.335938 484.835938 C 495.976562 484.886719 495.652344 485 495.351562 485.167969 C 494.878906 485.445312 494.621094 485.765625 494.578125 486.140625 C 494.535156 486.515625 494.933594 486.945312 495.777344 487.433594 L 499.367188 489.5 L 498.253906 490.148438 " fill-opacity="1" fill-rule="nonzero"/><path fill="#ee6a4a" d="M 500.113281 475.265625 L 468.835938 512.820312 L 480.03125 506.363281 L 508.304688 471.167969 L 500.113281 475.265625 " fill-opacity="1" fill-rule="nonzero"/><path fill="#d5d9e5" d="M 600.441406 530.621094 L 549.074219 560.269531 L 496.972656 530.621094 L 496.972656 523.652344 L 548.304688 500.792969 L 600.441406 523.652344 L 600.441406 530.621094 " fill-opacity="1" fill-rule="nonzero"/><path fill="#ffffff" d="M 600.441406 523.652344 L 549.074219 553.300781 L 496.972656 523.652344 L 548.304688 493.816406 L 600.441406 523.652344 " fill-opacity="1" fill-rule="nonzero"/><g clip-path="url(#9e8ca56eed)"><g clip-path="url(#756b4e5847)"><path fill="#edab95" d="M 564.199219 547.273438 L 559.425781 543.363281 C 558.101562 542.277344 555.742188 541.921875 554.160156 542.5625 C 552.578125 543.210938 552.371094 544.609375 553.699219 545.695312 L 559.171875 550.171875 L 564.199219 547.273438 " fill-opacity="1" fill-rule="nonzero"/></g></g><g clip-path="url(#21e1a7628b)"><g clip-path="url(#5f1744a3cf)"><path fill="#323232" d="M 553.59375 531.867188 C 542.824219 538.28125 550.050781 544.109375 552.140625 545.816406 L 555.671875 548.714844 L 563.996094 545.332031 L 558.675781 540.96875 C 556.789062 539.421875 553.59375 531.867188 553.59375 531.867188 " fill-opacity="1" fill-rule="nonzero"/></g></g><g clip-path="url(#296d1920ba)"><g clip-path="url(#f765849cb2)"><path fill="#edab95" d="M 589.636719 532.589844 L 594.667969 529.6875 L 586.910156 526.527344 C 585.03125 525.765625 582.601562 525.882812 581.484375 526.796875 C 580.371094 527.707031 580.992188 529.070312 582.867188 529.832031 L 589.636719 532.589844 " fill-opacity="1" fill-rule="nonzero"/></g></g><g clip-path="url(#65ed06fb83)"><g clip-path="url(#134b11bb7d)"><path fill="#323232" d="M 562.921875 526.472656 C 574.046875 520.257812 584.15625 524.425781 587.121094 525.628906 L 592.140625 527.667969 L 586.28125 532.472656 L 578.71875 529.402344 C 576.042969 528.3125 562.921875 526.472656 562.921875 526.472656 " fill-opacity="1" fill-rule="nonzero"/></g></g><g clip-path="url(#bf7e51a4a9)"><g clip-path="url(#d28f82e30e)"><path fill="#323232" d="M 587.3125 533.929688 L 577.949219 528.523438 C 572.207031 525.210938 562.898438 525.210938 557.15625 528.523438 C 551.417969 531.839844 551.417969 537.207031 557.15625 540.523438 L 566.523438 545.929688 L 587.3125 533.929688 " fill-opacity="1" fill-rule="nonzero"/></g></g><g clip-path="url(#610328861c)"><g clip-path="url(#b8c24facb8)"><path fill="#f3b39d" d="M 538.871094 523.210938 C 540.238281 524 540.566406 525.085938 539.199219 525.875 C 537.832031 526.664062 535.621094 526.664062 534.253906 525.875 C 532.886719 525.085938 532.367188 524.113281 533.726562 523.324219 C 535.09375 522.539062 537.503906 522.421875 538.871094 523.210938 " fill-opacity="1" fill-rule="nonzero"/></g></g><g clip-path="url(#d4ab064cb9)"><g clip-path="url(#d45ff24d13)"><path fill="#e8a896" d="M 537.902344 523.769531 C 538.804688 524.289062 539.132812 524.945312 538.230469 525.46875 C 537.328125 525.988281 535.863281 525.988281 534.964844 525.46875 C 534.0625 524.945312 533.535156 524.40625 534.4375 523.886719 C 535.339844 523.363281 537 523.246094 537.902344 523.769531 " fill-opacity="1" fill-rule="nonzero"/></g></g><g clip-path="url(#1e8fb94ad5)"><g clip-path="url(#ebae043272)"><path fill="#f3b39d" d="M 552.554688 515.316406 C 553.921875 516.101562 553.921875 517.378906 552.554688 518.167969 C 551.191406 518.957031 549.304688 518.765625 547.9375 517.976562 C 546.578125 517.1875 546.769531 515.796875 548.136719 515.007812 C 549.5 514.222656 551.191406 514.527344 552.554688 515.316406 " fill-opacity="1" fill-rule="nonzero"/></g></g><g clip-path="url(#2c77ae7bf5)"><g clip-path="url(#33db2ad33d)"><path fill="#e8a896" d="M 551.851562 515.722656 C 552.75 516.246094 552.75 517.089844 551.851562 517.609375 C 550.949219 518.132812 549.8125 517.9375 548.90625 517.417969 C 548.003906 516.898438 548.199219 515.9375 549.101562 515.417969 C 550.007812 514.898438 550.949219 515.203125 551.851562 515.722656 " fill-opacity="1" fill-rule="nonzero"/></g></g><g clip-path="url(#44715e661b)"><g clip-path="url(#c54d873949)"><path fill="#181818" d="M 529.402344 521.6875 L 532.296875 523.359375 C 534.835938 524.828125 536.933594 525.023438 538.03125 524.394531 L 531.375 520.554688 L 529.402344 521.6875 " fill-opacity="1" fill-rule="nonzero"/></g></g><g clip-path="url(#47f9d604d9)"><g clip-path="url(#947a2d9a79)"><path fill="#181818" d="M 543.332031 513.652344 L 549.984375 517.492188 C 551.074219 516.863281 550.429688 515.472656 548.195312 514.183594 L 545.304688 512.511719 L 543.332031 513.652344 " fill-opacity="1" fill-rule="nonzero"/></g></g><g clip-path="url(#91984dfe62)"><g clip-path="url(#6cdd43e4a9)"><path fill="#edab95" d="M 547.867188 526.679688 L 553.007812 529.644531 C 554.6875 530.617188 557.410156 530.617188 559.089844 529.644531 C 560.773438 528.679688 560.773438 527.105469 559.089844 526.132812 L 553.953125 523.167969 L 547.867188 526.679688 " fill-opacity="1" fill-rule="nonzero"/></g></g><g clip-path="url(#0e23d1eae1)"><g clip-path="url(#57af34f266)"><path fill="#de897c" d="M 547.867188 526.679688 L 551.507812 528.78125 C 552.875 528.503906 554.152344 528.054688 555.246094 527.425781 C 556.328125 526.796875 557.113281 526.058594 557.589844 525.269531 L 553.953125 523.167969 L 547.867188 526.679688 " fill-opacity="1" fill-rule="nonzero"/></g></g><g clip-path="url(#0c208c0f75)"><g clip-path="url(#0b96c18c9d)"><path fill="#fbb89e" d="M 533.046875 514.617188 C 529.179688 516.851562 529.179688 520.46875 533.046875 522.703125 L 540.578125 527.050781 C 544.449219 529.285156 550.722656 529.285156 554.59375 527.050781 C 558.460938 524.820312 558.460938 521.195312 554.59375 518.960938 L 547.058594 514.617188 C 543.191406 512.386719 536.917969 512.386719 533.046875 514.617188 " fill-opacity="1" fill-rule="nonzero"/></g></g><g clip-path="url(#ffc66c7f66)"><g clip-path="url(#064fe6b559)"><path fill="#282828" d="M 562.996094 526.492188 L 560.519531 530.46875 L 553.625 531.902344 L 551.628906 529.722656 L 555.25 528.769531 L 557.746094 528.871094 L 557.570312 527.429688 L 559.222656 525.339844 L 562.996094 526.492188 " fill-opacity="1" fill-rule="nonzero"/></g></g><g clip-path="url(#7f7d1414bf)"><g clip-path="url(#5767fc169e)"><path fill="#323232" d="M 536.964844 508.519531 C 540.222656 510.195312 537.148438 511.199219 537.148438 511.199219 C 537.945312 509.640625 533.710938 509.265625 533.710938 509.265625 C 524.332031 513.710938 525.371094 517.066406 526.742188 519.296875 C 527.164062 519.984375 528.125 520.953125 529.402344 521.6875 C 530.921875 522.566406 532.078125 523.238281 532.078125 523.238281 C 532.078125 523.238281 528.453125 520.050781 535.808594 515.890625 C 538.324219 514.46875 543.144531 513.066406 547.984375 514.058594 L 544.988281 512.332031 C 543.4375 507.921875 536.964844 508.519531 536.964844 508.519531 " fill-opacity="1" fill-rule="nonzero"/></g></g><path fill="#ee6a4a" d="M 557.253906 498.9375 L 541.265625 548.855469 L 546.699219 551.949219 L 562.445312 501.910156 L 557.253906 498.9375 " fill-opacity="1" fill-rule="nonzero"/><path fill="#4168d4" d="M 354.914062 458.136719 C 351.949219 461.59375 352.347656 497.265625 349.003906 495.308594 C 333.101562 485.980469 339.058594 458.234375 339.167969 455.8125 C 340.117188 434.574219 344.699219 430.980469 344.699219 430.980469 C 346.308594 430.390625 361.871094 438.636719 360.660156 441.96875 C 357.871094 449.644531 354.914062 458.136719 354.914062 458.136719 " fill-opacity="1" fill-rule="nonzero"/><path fill="#1d0f0f" d="M 354.148438 594.765625 C 355.601562 600.636719 360.453125 600.574219 365.796875 597.125 C 371.140625 593.671875 375.320312 594.738281 379.402344 592.296875 C 388.742188 586.722656 382.910156 581.003906 382.910156 581.003906 L 356.191406 594.820312 L 354.148438 594.765625 " fill-opacity="1" fill-rule="nonzero"/><path fill="#ffffff" d="M 357.96875 598.0625 C 357.019531 598.058594 356.21875 597.710938 355.566406 597.015625 C 353.371094 594.679688 353.695312 589.234375 353.710938 589.003906 L 353.714844 588.917969 L 366.738281 579.378906 L 366.824219 579.410156 C 366.875 579.421875 371.980469 580.863281 377.375 580.863281 C 378.917969 580.863281 380.359375 580.742188 381.652344 580.507812 C 381.78125 580.484375 381.910156 580.472656 382.03125 580.472656 C 382.632812 580.472656 383.089844 580.769531 383.347656 581.324219 C 384.136719 583.007812 382.980469 586.777344 380.921875 589.234375 C 378.757812 591.820312 373.828125 592.433594 370.226562 592.886719 C 368.972656 593.039062 367.890625 593.171875 367.191406 593.363281 C 366.15625 593.644531 365.65625 594.128906 365.027344 594.742188 C 364.074219 595.679688 362.886719 596.84375 359.265625 597.867188 C 358.808594 597.996094 358.375 598.0625 357.96875 598.0625 " fill-opacity="1" fill-rule="nonzero"/><path fill="#1d0f0f" d="M 366.703125 579.183594 L 366.558594 579.285156 L 353.675781 588.722656 L 353.542969 588.820312 L 353.527344 588.988281 C 353.511719 589.222656 353.1875 594.75 355.433594 597.144531 C 356.121094 597.875 356.96875 598.242188 357.96875 598.242188 C 358.390625 598.242188 358.84375 598.175781 359.316406 598.039062 C 362.980469 597 364.1875 595.824219 365.15625 594.875 C 365.765625 594.277344 366.25 593.808594 367.238281 593.539062 C 367.925781 593.355469 369 593.21875 370.246094 593.0625 C 373.878906 592.613281 378.851562 591.992188 381.0625 589.351562 C 383.195312 586.800781 384.34375 583.019531 383.515625 581.25 C 383.222656 580.628906 382.699219 580.289062 382.03125 580.289062 C 381.898438 580.289062 381.757812 580.304688 381.617188 580.328125 C 380.335938 580.5625 378.910156 580.679688 377.375 580.679688 C 372.003906 580.679688 366.925781 579.242188 366.875 579.230469 Z M 366.773438 579.582031 C 366.773438 579.582031 371.886719 581.042969 377.375 581.042969 C 378.808594 581.042969 380.28125 580.941406 381.683594 580.691406 C 381.804688 580.667969 381.921875 580.65625 382.03125 580.65625 C 384.417969 580.65625 383.539062 585.824219 380.785156 589.117188 C 377.902344 592.554688 369.835938 592.457031 367.144531 593.183594 C 364.453125 593.917969 365.207031 595.992188 359.214844 597.691406 C 358.761719 597.820312 358.351562 597.878906 357.96875 597.878906 C 353.320312 597.878906 353.894531 589.011719 353.894531 589.011719 L 366.773438 579.582031 " fill-opacity="1" fill-rule="nonzero"/><path fill="#1d0f0f" d="M 377.988281 596.585938 C 378.664062 602.929688 384.1875 603.816406 390.734375 601.324219 C 397.277344 598.828125 401.78125 600.742188 406.75 599.058594 C 416.726562 595.683594 412.523438 588.105469 412.523438 588.105469 L 380.351562 597.03125 L 377.988281 596.585938 " fill-opacity="1" fill-rule="nonzero"/><path fill="#ffffff" d="M 382.769531 600.800781 C 381.355469 600.800781 380.226562 600.300781 379.410156 599.320312 C 377.019531 596.4375 378.121094 590.425781 378.167969 590.171875 L 378.183594 590.078125 L 394.273438 583.257812 L 394.34375 583.289062 C 394.4375 583.328125 403.566406 587.269531 411.203125 587.351562 C 412.3125 587.363281 412.753906 587.976562 412.925781 588.480469 C 413.566406 590.367188 411.664062 594.042969 408.933594 596.195312 C 407.355469 597.433594 404.832031 598.011719 400.980469 598.011719 C 399.375 598.011719 397.78125 597.90625 396.371094 597.824219 C 395.265625 597.753906 394.304688 597.691406 393.546875 597.691406 C 393.304688 597.691406 393.089844 597.703125 392.898438 597.714844 C 391.675781 597.796875 391.042969 598.199219 390.234375 598.710938 C 389.015625 599.480469 387.496094 600.441406 383.285156 600.777344 C 383.105469 600.792969 382.9375 600.800781 382.769531 600.800781 " fill-opacity="1" fill-rule="nonzero"/><path fill="#1d0f0f" d="M 394.273438 583.058594 L 394.132812 583.121094 L 378.203125 589.871094 L 378.027344 589.945312 L 377.988281 590.140625 C 377.941406 590.398438 376.828125 596.488281 379.269531 599.4375 C 380.121094 600.460938 381.300781 600.980469 382.769531 600.980469 C 382.941406 600.980469 383.121094 600.972656 383.300781 600.957031 C 387.558594 600.621094 389.09375 599.644531 390.332031 598.867188 C 391.117188 598.367188 391.738281 597.972656 392.910156 597.894531 C 393.089844 597.882812 393.300781 597.875 393.542969 597.875 C 394.296875 597.875 395.253906 597.9375 396.363281 598.007812 C 397.773438 598.089844 399.363281 598.1875 400.980469 598.1875 C 404.871094 598.1875 407.4375 597.601562 409.046875 596.335938 C 411.878906 594.105469 413.769531 590.410156 413.101562 588.421875 C 412.824219 587.628906 412.152344 587.183594 411.203125 587.171875 C 403.605469 587.085938 394.507812 583.164062 394.417969 583.121094 Z M 394.273438 583.453125 C 394.273438 583.453125 403.441406 587.453125 411.199219 587.535156 C 414.433594 587.570312 412.601562 593.074219 408.816406 596.050781 C 407 597.480469 403.976562 597.824219 400.980469 597.824219 C 398.125 597.824219 395.292969 597.511719 393.542969 597.511719 C 393.300781 597.511719 393.082031 597.519531 392.882812 597.53125 C 389.75 597.75 390.253906 600.039062 383.269531 600.597656 C 383.097656 600.613281 382.929688 600.617188 382.769531 600.617188 C 376.386719 600.617188 378.34375 590.203125 378.34375 590.203125 L 394.273438 583.453125 " fill-opacity="1" fill-rule="nonzero"/><path fill="#2c3984" d="M 368.5625 580.019531 C 368.5625 580.019531 366.929688 571.855469 368.0625 563.648438 C 369.339844 554.410156 372.257812 543.789062 371.5625 539.183594 C 370.320312 530.933594 369.664062 523.449219 369.664062 523.449219 C 369.664062 523.449219 376.152344 529.378906 376.949219 537.832031 C 377.75 546.285156 377.777344 592.855469 377.777344 592.855469 C 377.777344 592.855469 392.34375 595.660156 394.6875 583.421875 C 394.6875 583.421875 391.847656 581.648438 391.847656 575.796875 C 391.847656 569.949219 396.898438 549.210938 395.832031 540.707031 C 394.769531 532.195312 389.980469 497.632812 389.980469 497.632812 L 349.851562 487.90625 C 349.851562 487.90625 348.738281 499.148438 349.851562 512.96875 C 350.523438 521.347656 353.890625 533.300781 353.433594 536.714844 C 352.210938 545.757812 352.003906 583.914062 353.714844 589.496094 C 353.714844 589.496094 363.707031 588.886719 368.5625 580.019531 " fill-opacity="1" fill-rule="nonzero"/><path fill="#849ef7" d="M 351.316406 502.363281 C 349.507812 501.238281 348.414062 498.457031 348.421875 496.332031 C 348.457031 488.257812 347.949219 464.152344 342.222656 446.109375 C 339.886719 438.75 343.53125 425.214844 350.761719 426.550781 C 360.714844 428.382812 370.507812 430.988281 378.957031 435.636719 C 382.441406 437.558594 386.089844 441.34375 388.804688 443.167969 C 393.070312 446.035156 392.324219 449.441406 392.171875 452.027344 C 390.902344 473.660156 391.019531 490.855469 391.441406 498.535156 C 391.6875 502.867188 389.160156 506.707031 385 507.964844 C 370.953125 512.203125 357.175781 506.011719 351.316406 502.363281 " fill-opacity="1" fill-rule="nonzero"/><path fill="#4168d4" d="M 381.09375 461.628906 C 381.09375 461.628906 387.03125 478.546875 391.183594 490.078125 L 391.375 469.996094 L 392.320312 462.660156 L 381.09375 461.628906 " fill-opacity="1" fill-rule="nonzero"/><path fill="#ffcdbc" d="M 396.6875 458.050781 C 396.6875 458.050781 399.28125 459.347656 404.980469 461.507812 C 413.578125 464.765625 414.574219 447.511719 415.457031 441.707031 C 414.640625 438.269531 420.808594 423.507812 425.722656 422.25 C 430.628906 420.992188 428.085938 433.945312 422.441406 443.894531 C 422.441406 443.894531 421.222656 474.917969 405.230469 475.011719 C 395.425781 475.070312 391.488281 467.328125 391.488281 467.328125 L 396.6875 458.050781 " fill-opacity="1" fill-rule="nonzero"/><path fill="#ffffff" d="M 413.949219 446.195312 L 413.949219 443.195312 C 413.949219 443.195312 421.050781 443.21875 423.074219 446.234375 L 422.652344 450.164062 L 413.949219 446.195312 " fill-opacity="1" fill-rule="nonzero"/><path fill="#849ef7" d="M 423.28125 448.570312 C 423.28125 448.570312 423.394531 472.308594 411.644531 476.128906 C 399.894531 479.949219 390.875 470.964844 390.875 470.964844 L 396.632812 453.140625 C 396.632812 453.140625 403.496094 463.335938 408.578125 459.414062 C 413.0625 455.953125 412.992188 444.558594 412.992188 444.558594 C 412.992188 444.558594 420.589844 444.484375 423.28125 448.570312 " fill-opacity="1" fill-rule="nonzero"/><path fill="#849ef7" d="M 399.921875 457.613281 C 403.613281 462.980469 396.058594 474.605469 391.929688 471.703125 C 386.945312 468.179688 380.542969 464.492188 379.734375 460.523438 C 377.933594 451.625 385.144531 441.4375 389.71875 443.855469 C 392.25 445.195312 394.6875 450.691406 396.800781 453.355469 C 398.644531 455.679688 399.921875 457.613281 399.921875 457.613281 " fill-opacity="1" fill-rule="nonzero"/><path fill="#1a1b1d" d="M 389.925781 412.582031 L 385.472656 409.386719 L 385.335938 410.5625 L 388.828125 413.066406 C 388.828125 413.066406 389.050781 416.363281 387.347656 416.324219 C 385.644531 416.28125 384.726562 415.015625 384.726562 415.015625 L 384.429688 416.089844 C 384.429688 416.089844 387.019531 418.183594 388.234375 417.328125 C 389.449219 416.480469 390.046875 414.277344 389.925781 412.582031 " fill-opacity="1" fill-rule="nonzero"/><path fill="#fdcbba" d="M 373.402344 428.4375 L 375.894531 427.027344 L 362.765625 418.738281 C 362.84375 419.734375 362.972656 420.785156 362.871094 421.425781 C 362.144531 425.945312 358.210938 428.4375 358.210938 428.4375 C 354.335938 437.808594 373.292969 435.085938 373.292969 435.085938 C 370.085938 431.023438 373.402344 428.4375 373.402344 428.4375 " fill-opacity="1" fill-rule="nonzero"/><path fill="#fdcbba" d="M 362.765625 418.738281 C 363.304688 414.195312 359.867188 403.714844 365.820312 399.523438 C 376.753906 391.820312 389.214844 398.589844 387.835938 409.484375 C 386.460938 420.382812 384.492188 428.003906 381.394531 428.789062 C 378.335938 429.566406 373.269531 428.578125 373.269531 428.578125 C 368.144531 427.703125 362.195312 423.542969 362.765625 418.738281 " fill-opacity="1" fill-rule="nonzero"/><path fill="#1e1e1e" d="M 364.320312 421.625 C 369.433594 424.460938 373.785156 423.75 376.203125 420.527344 C 378.625 417.300781 376.113281 411.125 383.703125 410.003906 C 386.035156 409.660156 388.699219 409.671875 389.921875 405.917969 C 390.492188 404.167969 390.59375 401.234375 388.972656 398.539062 C 387.121094 395.457031 383.011719 392.679688 374.773438 392.339844 C 356.296875 391.574219 357.148438 417.652344 364.320312 421.625 " fill-opacity="1" fill-rule="nonzero"/><path fill="#1a1b1d" d="M 377.273438 414.992188 L 388.828125 413.066406 L 389.132812 414.046875 L 388.992188 414.78125 L 377.042969 416.171875 L 377.273438 414.992188 " fill-opacity="1" fill-rule="nonzero"/><path fill="#fdcbba" d="M 378.828125 417.398438 C 378.691406 419.5625 377.167969 421.949219 375.363281 421.832031 C 373.558594 421.714844 372.171875 419.144531 372.304688 416.980469 C 372.445312 414.816406 374.019531 413.15625 375.824219 413.273438 C 377.621094 413.386719 378.96875 415.234375 378.828125 417.398438 " fill-opacity="1" fill-rule="nonzero"/><path fill="#4168d4" d="M 354.5 427.125 C 354.5 427.125 350.347656 434.515625 362.863281 438.445312 C 373.675781 441.832031 375.449219 434.871094 375.449219 434.871094 L 363.234375 434.566406 L 354.5 427.125 " fill-opacity="1" fill-rule="nonzero"/><path fill="#ffffff" d="M 354.5 427.125 C 354.5 427.125 351.480469 432.214844 362.230469 436.421875 C 372.589844 440.472656 375.449219 434.871094 375.449219 434.871094 C 375.449219 434.871094 375.34375 431.117188 371.398438 432.585938 C 368.351562 433.71875 361.492188 431.636719 358.960938 426.863281 C 357.78125 424.636719 354.5 427.125 354.5 427.125 " fill-opacity="1" fill-rule="nonzero"/><path fill="#ffffff" d="M 410.425781 435.707031 L 420.878906 438.457031 C 421.425781 438.601562 422.023438 438.265625 422.1875 437.710938 L 429.019531 415.125 C 429.183594 414.59375 428.886719 414.0625 428.355469 413.9375 L 417.636719 411.355469 C 417.089844 411.222656 416.511719 411.566406 416.347656 412.109375 L 409.78125 434.535156 C 409.625 435.054688 409.910156 435.570312 410.425781 435.707031 " fill-opacity="1" fill-rule="nonzero"/><path fill="#202b76" d="M 410.964844 434.464844 L 421.171875 437.292969 L 427.84375 415.230469 L 417.335938 412.726562 L 410.964844 434.464844 " fill-opacity="1" fill-rule="nonzero"/><path fill="#ffcdbc" d="M 416.132812 440.199219 C 416.132812 440.199219 409.671875 434.351562 412.972656 433.574219 C 414.554688 433.207031 418.875 437.933594 418.875 437.933594 L 416.132812 440.199219 " fill-opacity="1" fill-rule="nonzero"/><path fill="#000000" d="M 353.109375 347.660156 C 351.597656 347.566406 350.539062 346.800781 349.933594 345.363281 C 349.328125 343.933594 349.023438 341.835938 349.023438 339.082031 L 349.023438 314.214844 L 355.5625 310.441406 L 355.5625 336.078125 C 355.5625 338.195312 355.8125 339.6875 356.3125 340.546875 C 356.808594 341.410156 357.832031 341.398438 359.375 340.503906 C 360.953125 339.59375 361.984375 338.425781 362.488281 336.984375 C 362.984375 335.546875 363.234375 333.769531 363.234375 331.652344 L 363.234375 306.011719 L 369.726562 302.265625 L 369.726562 327.132812 C 369.726562 329.859375 369.421875 332.296875 368.820312 334.441406 C 368.214844 336.589844 367.15625 338.589844 365.644531 340.429688 C 364.125 342.269531 362.039062 343.960938 359.375 345.496094 C 356.710938 347.035156 354.625 347.753906 353.109375 347.660156 " fill-opacity="1" fill-rule="nonzero"/><path fill="#000000" d="M 380.078125 313.539062 L 372.902344 300.433594 L 379.171875 296.816406 L 383.9375 305.5 L 388.113281 291.652344 L 393.878906 288.324219 L 386.84375 310.90625 L 394.425781 324.769531 L 388.207031 328.363281 L 382.984375 318.984375 L 378.445312 333.996094 L 372.675781 337.324219 L 380.078125 313.539062 " fill-opacity="1" fill-rule="nonzero"/><path fill="#e7e7e7" d="M 377.355469 350.789062 L 375.714844 350.789062 L 375.714844 348.332031 L 377.355469 348.332031 L 377.355469 350.789062 " fill-opacity="1" fill-rule="nonzero"/><path fill="#e7e7e7" d="M 377.355469 359.011719 L 375.714844 359.011719 L 375.714844 354.902344 L 377.355469 354.902344 Z M 377.355469 367.226562 L 375.714844 367.226562 L 375.714844 363.117188 L 377.355469 363.117188 L 377.355469 367.226562 " fill-opacity="1" fill-rule="nonzero"/><path fill="#e7e7e7" d="M 375.714844 375.199219 L 375.714844 371.332031 L 377.355469 371.332031 L 377.355469 372.386719 L 378.28125 371.871094 L 379.085938 373.304688 L 375.714844 375.199219 " fill-opacity="1" fill-rule="nonzero"/><path fill="#e7e7e7" d="M 445.957031 335.703125 L 445.152344 334.273438 L 449.609375 331.765625 L 450.414062 333.191406 Z M 437.039062 340.710938 L 436.238281 339.285156 L 440.691406 336.777344 L 441.5 338.207031 Z M 428.125 345.730469 L 427.320312 344.296875 L 431.78125 341.789062 L 432.582031 343.222656 Z M 419.210938 350.742188 L 418.402344 349.3125 L 422.863281 346.804688 L 423.664062 348.238281 Z M 410.292969 355.757812 L 409.488281 354.324219 L 413.945312 351.820312 L 414.753906 353.25 Z M 401.378906 360.769531 L 400.570312 359.339844 L 405.027344 356.832031 L 405.835938 358.261719 Z M 392.460938 365.785156 L 391.652344 364.351562 L 396.113281 361.84375 L 396.917969 363.277344 Z M 383.542969 370.796875 L 382.742188 369.363281 L 387.195312 366.859375 L 388 368.289062 L 383.542969 370.796875 " fill-opacity="1" fill-rule="nonzero"/><path fill="#e7e7e7" d="M 454.875 330.6875 L 454.066406 329.253906 L 456.21875 328.046875 L 457.019531 329.480469 L 454.875 330.6875 " fill-opacity="1" fill-rule="nonzero"/><path fill="#ececec" d="M 380.929688 345.796875 C 380.929688 348.21875 378.960938 351.320312 376.539062 352.71875 C 374.109375 354.117188 372.140625 353.289062 372.140625 350.867188 C 372.140625 348.4375 374.109375 345.339844 376.539062 343.9375 C 378.960938 342.539062 380.929688 343.371094 380.929688 345.796875 " fill-opacity="1" fill-rule="nonzero"/><path fill="#ececec" d="M 425.816406 553.65625 C 425.816406 556.082031 427.777344 559.179688 430.207031 560.585938 C 432.628906 561.984375 434.597656 561.152344 434.597656 558.726562 C 434.597656 556.304688 432.628906 553.199219 430.207031 551.800781 C 427.777344 550.402344 425.816406 551.234375 425.816406 553.65625 " fill-opacity="1" fill-rule="nonzero"/><path fill="#ffffff" d="M 417.394531 439.328125 L 415.757812 439.328125 L 415.757812 434.402344 L 417.394531 434.402344 Z M 417.394531 449.179688 L 415.757812 449.179688 L 415.757812 444.25 L 417.394531 444.25 Z M 417.394531 459.03125 L 415.757812 459.03125 L 415.757812 454.101562 L 417.394531 454.101562 Z M 417.394531 468.886719 L 415.757812 468.886719 L 415.757812 463.957031 L 417.394531 463.957031 Z M 417.394531 478.738281 L 415.757812 478.738281 L 415.757812 473.808594 L 417.394531 473.808594 Z M 417.394531 488.589844 L 415.757812 488.589844 L 415.757812 483.664062 L 417.394531 483.664062 Z M 417.394531 498.4375 L 415.757812 498.4375 L 415.757812 493.515625 L 417.394531 493.515625 Z M 417.394531 508.296875 L 415.757812 508.296875 L 415.757812 503.367188 L 417.394531 503.367188 Z M 417.394531 518.144531 L 415.757812 518.144531 L 415.757812 513.222656 L 417.394531 513.222656 Z M 417.394531 528 L 415.757812 528 L 415.757812 523.074219 L 417.394531 523.074219 Z M 417.394531 537.851562 L 415.757812 537.851562 L 415.757812 532.925781 L 417.394531 532.925781 Z M 417.394531 547.703125 L 415.757812 547.703125 L 415.757812 542.773438 L 417.394531 542.773438 Z M 424.355469 553.628906 L 420.132812 551.082031 L 420.984375 549.675781 L 425.207031 552.21875 Z M 429.785156 556.894531 L 428.578125 556.167969 L 429.425781 554.765625 L 430.628906 555.488281 L 429.785156 556.894531 " fill-opacity="1" fill-rule="nonzero"/><path fill="#1e8061" d="M 331.828125 218.71875 C 315.078125 228.382812 301.5 249.789062 301.5 266.527344 C 301.5 277.976562 312.671875 287.835938 322.042969 287.589844 C 326.375 287.476562 326.527344 282.398438 331.828125 279.339844 C 348.574219 269.675781 362.148438 248.265625 362.148438 231.527344 C 362.148438 228.734375 366.496094 226.230469 365.621094 224.136719 C 361.605469 214.558594 345.777344 210.660156 331.828125 218.71875 " fill-opacity="1" fill-rule="nonzero"/><path fill="#39bc92" d="M 337.984375 222.269531 C 321.238281 231.933594 307.664062 253.34375 307.664062 270.085938 C 307.664062 286.824219 321.238281 292.558594 337.984375 282.894531 C 354.734375 273.230469 368.308594 251.824219 368.308594 235.082031 C 368.308594 218.339844 354.734375 212.605469 337.984375 222.269531 " fill-opacity="1" fill-rule="nonzero"/><path fill="#ffffff" d="M 335.585938 272.71875 L 318.753906 266.746094 L 323.878906 258.292969 L 335.039062 262.25 L 353.378906 230.738281 L 359.03125 232.429688 L 335.585938 272.71875 " fill-opacity="1" fill-rule="nonzero"/><path fill="#d74f41" d="M 309.714844 329.105469 C 299.121094 335.21875 290.527344 348.765625 290.527344 359.355469 C 290.527344 366.636719 296.246094 372.265625 303.359375 372.773438 C 306.074219 372.96875 306.398438 369.378906 309.714844 367.46875 C 320.3125 361.351562 328.90625 347.804688 328.90625 337.210938 C 328.90625 335.464844 332.035156 334.265625 331.484375 332.953125 C 328.6875 326.269531 318.566406 323.996094 309.714844 329.105469 " fill-opacity="1" fill-rule="nonzero"/><path fill="#fc7660" d="M 313.824219 331.472656 C 303.226562 337.589844 294.636719 351.136719 294.636719 361.726562 C 294.636719 372.324219 303.226562 375.949219 313.824219 369.835938 C 324.421875 363.71875 333.011719 350.175781 333.011719 339.582031 C 333.011719 328.988281 324.421875 325.359375 313.824219 331.472656 " fill-opacity="1" fill-rule="nonzero"/><path fill="#ffffff" d="M 325.019531 336.367188 L 321.65625 334.941406 L 313.824219 347.292969 L 305.992188 343.984375 L 302.628906 349.289062 L 310.460938 352.597656 L 302.628906 364.949219 L 305.992188 366.367188 L 313.824219 354.015625 L 321.65625 357.324219 L 325.019531 352.019531 L 317.1875 348.710938 L 325.019531 336.367188 " fill-opacity="1" fill-rule="nonzero"/><g fill="#000000" fill-opacity="1"><g transform="translate(230.474759, 766.058645)"><g><path d="M 52.84375 0 L 41.25 0 L 34.734375 -25.25 C 34.492188 -26.144531 34.082031 -28 33.5 -30.8125 C 32.925781 -33.625 32.59375 -35.515625 32.5 -36.484375 C 32.375 -35.296875 32.046875 -33.394531 31.515625 -30.78125 C 30.992188 -28.164062 30.585938 -26.296875 30.296875 -25.171875 L 23.828125 0 L 12.265625 0 L 0 -48.046875 L 10.03125 -48.046875 L 16.171875 -21.828125 C 17.242188 -16.984375 18.019531 -12.785156 18.5 -9.234375 C 18.632812 -10.484375 18.9375 -12.414062 19.40625 -15.03125 C 19.875 -17.65625 20.316406 -19.691406 20.734375 -21.140625 L 27.734375 -48.046875 L 37.375 -48.046875 L 44.375 -21.140625 C 44.675781 -19.929688 45.054688 -18.085938 45.515625 -15.609375 C 45.984375 -13.128906 46.335938 -11.003906 46.578125 -9.234375 C 46.796875 -10.941406 47.144531 -13.070312 47.625 -15.625 C 48.101562 -18.175781 48.539062 -20.242188 48.9375 -21.828125 L 55.046875 -48.046875 L 65.078125 -48.046875 Z M 52.84375 0 "/></g></g></g><g fill="#000000" fill-opacity="1"><g transform="translate(295.55227, 766.058645)"><g><path d="M 20.46875 -30.296875 C 18.34375 -30.296875 16.675781 -29.625 15.46875 -28.28125 C 14.269531 -26.9375 13.582031 -25.023438 13.40625 -22.546875 L 27.484375 -22.546875 C 27.429688 -25.023438 26.78125 -26.9375 25.53125 -28.28125 C 24.289062 -29.625 22.601562 -30.296875 20.46875 -30.296875 Z M 21.890625 0.65625 C 15.972656 0.65625 11.347656 -0.972656 8.015625 -4.234375 C 4.691406 -7.503906 3.03125 -12.128906 3.03125 -18.109375 C 3.03125 -24.265625 4.566406 -29.023438 7.640625 -32.390625 C 10.722656 -35.753906 14.976562 -37.4375 20.40625 -37.4375 C 25.601562 -37.4375 29.644531 -35.957031 32.53125 -33 C 35.425781 -30.039062 36.875 -25.953125 36.875 -20.734375 L 36.875 -15.875 L 13.1875 -15.875 C 13.289062 -13.03125 14.128906 -10.804688 15.703125 -9.203125 C 17.285156 -7.597656 19.5 -6.796875 22.34375 -6.796875 C 24.5625 -6.796875 26.65625 -7.023438 28.625 -7.484375 C 30.59375 -7.953125 32.65625 -8.691406 34.8125 -9.703125 L 34.8125 -1.9375 C 33.050781 -1.0625 31.175781 -0.410156 29.1875 0.015625 C 27.195312 0.441406 24.765625 0.65625 21.890625 0.65625 Z M 21.890625 0.65625 "/></g></g></g><g fill="#000000" fill-opacity="1"><g transform="translate(335.321861, 766.058645)"><g><path d="M 25.703125 -37.4375 C 30.035156 -37.4375 33.429688 -35.742188 35.890625 -32.359375 C 38.347656 -28.972656 39.578125 -24.332031 39.578125 -18.4375 C 39.578125 -12.363281 38.3125 -7.660156 35.78125 -4.328125 C 33.25 -1.003906 29.800781 0.65625 25.4375 0.65625 C 21.125 0.65625 17.738281 -0.910156 15.28125 -4.046875 L 14.59375 -4.046875 L 12.921875 0 L 5.265625 0 L 5.265625 -51.140625 L 15.28125 -51.140625 L 15.28125 -39.25 C 15.28125 -37.726562 15.148438 -35.304688 14.890625 -31.984375 L 15.28125 -31.984375 C 17.625 -35.617188 21.097656 -37.4375 25.703125 -37.4375 Z M 22.484375 -29.421875 C 20.003906 -29.421875 18.191406 -28.65625 17.046875 -27.125 C 15.910156 -25.601562 15.320312 -23.09375 15.28125 -19.59375 L 15.28125 -18.5 C 15.28125 -14.5625 15.863281 -11.734375 17.03125 -10.015625 C 18.207031 -8.304688 20.066406 -7.453125 22.609375 -7.453125 C 24.671875 -7.453125 26.304688 -8.398438 27.515625 -10.296875 C 28.734375 -12.191406 29.34375 -14.945312 29.34375 -18.5625 C 29.34375 -22.1875 28.726562 -24.898438 27.5 -26.703125 C 26.28125 -28.515625 24.609375 -29.421875 22.484375 -29.421875 Z M 22.484375 -29.421875 "/></g></g></g><g fill="#000000" fill-opacity="1"><g transform="translate(377.91805, 766.058645)"><g/></g></g><g fill="#000000" fill-opacity="1"><g transform="translate(395.403523, 766.058645)"><g><path d="M 45.921875 -24.484375 C 45.921875 -16.578125 43.664062 -10.519531 39.15625 -6.3125 C 34.65625 -2.101562 28.15625 0 19.65625 0 L 6.046875 0 L 6.046875 -48.046875 L 21.140625 -48.046875 C 28.984375 -48.046875 35.070312 -45.972656 39.40625 -41.828125 C 43.75 -37.691406 45.921875 -31.910156 45.921875 -24.484375 Z M 35.328125 -24.21875 C 35.328125 -34.539062 30.769531 -39.703125 21.65625 -39.703125 L 16.234375 -39.703125 L 16.234375 -8.421875 L 20.609375 -8.421875 C 30.421875 -8.421875 35.328125 -13.6875 35.328125 -24.21875 Z M 35.328125 -24.21875 "/></g></g></g><g fill="#000000" fill-opacity="1"><g transform="translate(445.230547, 766.058645)"><g><path d="M 20.46875 -30.296875 C 18.34375 -30.296875 16.675781 -29.625 15.46875 -28.28125 C 14.269531 -26.9375 13.582031 -25.023438 13.40625 -22.546875 L 27.484375 -22.546875 C 27.429688 -25.023438 26.78125 -26.9375 25.53125 -28.28125 C 24.289062 -29.625 22.601562 -30.296875 20.46875 -30.296875 Z M 21.890625 0.65625 C 15.972656 0.65625 11.347656 -0.972656 8.015625 -4.234375 C 4.691406 -7.503906 3.03125 -12.128906 3.03125 -18.109375 C 3.03125 -24.265625 4.566406 -29.023438 7.640625 -32.390625 C 10.722656 -35.753906 14.976562 -37.4375 20.40625 -37.4375 C 25.601562 -37.4375 29.644531 -35.957031 32.53125 -33 C 35.425781 -30.039062 36.875 -25.953125 36.875 -20.734375 L 36.875 -15.875 L 13.1875 -15.875 C 13.289062 -13.03125 14.128906 -10.804688 15.703125 -9.203125 C 17.285156 -7.597656 19.5 -6.796875 22.34375 -6.796875 C 24.5625 -6.796875 26.65625 -7.023438 28.625 -7.484375 C 30.59375 -7.953125 32.65625 -8.691406 34.8125 -9.703125 L 34.8125 -1.9375 C 33.050781 -1.0625 31.175781 -0.410156 29.1875 0.015625 C 27.195312 0.441406 24.765625 0.65625 21.890625 0.65625 Z M 21.890625 0.65625 "/></g></g></g><g fill="#000000" fill-opacity="1"><g transform="translate(485.000137, 766.058645)"><g><path d="M 30.890625 -10.90625 C 30.890625 -7.144531 29.582031 -4.273438 26.96875 -2.296875 C 24.351562 -0.328125 20.4375 0.65625 15.21875 0.65625 C 12.539062 0.65625 10.257812 0.472656 8.375 0.109375 C 6.488281 -0.242188 4.726562 -0.773438 3.09375 -1.484375 L 3.09375 -9.765625 C 4.957031 -8.890625 7.054688 -8.15625 9.390625 -7.5625 C 11.722656 -6.96875 13.773438 -6.671875 15.546875 -6.671875 C 19.179688 -6.671875 21 -7.722656 21 -9.828125 C 21 -10.617188 20.757812 -11.257812 20.28125 -11.75 C 19.800781 -12.238281 18.96875 -12.796875 17.78125 -13.421875 C 16.59375 -14.046875 15.015625 -14.773438 13.046875 -15.609375 C 10.222656 -16.796875 8.144531 -17.890625 6.8125 -18.890625 C 5.488281 -19.898438 4.523438 -21.054688 3.921875 -22.359375 C 3.328125 -23.671875 3.03125 -25.28125 3.03125 -27.1875 C 3.03125 -30.445312 4.289062 -32.96875 6.8125 -34.75 C 9.34375 -36.539062 12.929688 -37.4375 17.578125 -37.4375 C 22.003906 -37.4375 26.3125 -36.472656 30.5 -34.546875 L 27.484375 -27.3125 C 25.640625 -28.101562 23.914062 -28.75 22.3125 -29.25 C 20.71875 -29.757812 19.085938 -30.015625 17.421875 -30.015625 C 14.460938 -30.015625 12.984375 -29.210938 12.984375 -27.609375 C 12.984375 -26.710938 13.457031 -25.929688 14.40625 -25.265625 C 15.363281 -24.609375 17.453125 -23.632812 20.671875 -22.34375 C 23.546875 -21.1875 25.648438 -20.101562 26.984375 -19.09375 C 28.316406 -18.082031 29.300781 -16.921875 29.9375 -15.609375 C 30.570312 -14.296875 30.890625 -12.726562 30.890625 -10.90625 Z M 30.890625 -10.90625 "/></g></g></g><g fill="#000000" fill-opacity="1"><g transform="translate(518.459181, 766.058645)"><g><path d="M 4.828125 -46.25 C 4.828125 -49.507812 6.644531 -51.140625 10.28125 -51.140625 C 13.925781 -51.140625 15.75 -49.507812 15.75 -46.25 C 15.75 -44.6875 15.289062 -43.472656 14.375 -42.609375 C 13.46875 -41.742188 12.101562 -41.3125 10.28125 -41.3125 C 6.644531 -41.3125 4.828125 -42.957031 4.828125 -46.25 Z M 15.28125 0 L 5.265625 0 L 5.265625 -36.75 L 15.28125 -36.75 Z M 15.28125 0 "/></g></g></g><g fill="#000000" fill-opacity="1"><g transform="translate(539.001324, 766.058645)"><g><path d="M 37.234375 -36.75 L 37.234375 -31.65625 L 31.484375 -30.171875 C 32.535156 -28.523438 33.0625 -26.6875 33.0625 -24.65625 C 33.0625 -20.707031 31.6875 -17.628906 28.9375 -15.421875 C 26.1875 -13.222656 22.367188 -12.125 17.484375 -12.125 L 15.671875 -12.234375 L 14.203125 -12.390625 C 13.171875 -11.597656 12.65625 -10.722656 12.65625 -9.765625 C 12.65625 -8.316406 14.492188 -7.59375 18.171875 -7.59375 L 24.421875 -7.59375 C 28.453125 -7.59375 31.523438 -6.726562 33.640625 -5 C 35.753906 -3.269531 36.8125 -0.726562 36.8125 2.625 C 36.8125 6.925781 35.019531 10.257812 31.4375 12.625 C 27.851562 14.988281 22.707031 16.171875 16 16.171875 C 10.875 16.171875 6.957031 15.273438 4.25 13.484375 C 1.550781 11.703125 0.203125 9.203125 0.203125 5.984375 C 0.203125 3.765625 0.890625 1.910156 2.265625 0.421875 C 3.648438 -1.066406 5.675781 -2.128906 8.34375 -2.765625 C 7.3125 -3.203125 6.410156 -3.914062 5.640625 -4.90625 C 4.878906 -5.90625 4.5 -6.960938 4.5 -8.078125 C 4.5 -9.484375 4.90625 -10.648438 5.71875 -11.578125 C 6.53125 -12.515625 7.703125 -13.429688 9.234375 -14.328125 C 7.304688 -15.160156 5.773438 -16.492188 4.640625 -18.328125 C 3.515625 -20.171875 2.953125 -22.34375 2.953125 -24.84375 C 2.953125 -28.851562 4.253906 -31.953125 6.859375 -34.140625 C 9.472656 -36.335938 13.203125 -37.4375 18.046875 -37.4375 C 19.078125 -37.4375 20.296875 -37.34375 21.703125 -37.15625 C 23.117188 -36.96875 24.023438 -36.832031 24.421875 -36.75 Z M 8.875 5.1875 C 8.875 6.570312 9.535156 7.65625 10.859375 8.4375 C 12.179688 9.226562 14.039062 9.625 16.4375 9.625 C 20.03125 9.625 22.84375 9.128906 24.875 8.140625 C 26.914062 7.160156 27.9375 5.816406 27.9375 4.109375 C 27.9375 2.722656 27.332031 1.765625 26.125 1.234375 C 24.925781 0.710938 23.066406 0.453125 20.546875 0.453125 L 15.34375 0.453125 C 13.507812 0.453125 11.972656 0.882812 10.734375 1.75 C 9.492188 2.625 8.875 3.769531 8.875 5.1875 Z M 12.515625 -24.71875 C 12.515625 -22.71875 12.96875 -21.132812 13.875 -19.96875 C 14.789062 -18.8125 16.179688 -18.234375 18.046875 -18.234375 C 19.929688 -18.234375 21.3125 -18.8125 22.1875 -19.96875 C 23.0625 -21.132812 23.5 -22.71875 23.5 -24.71875 C 23.5 -29.144531 21.679688 -31.359375 18.046875 -31.359375 C 14.359375 -31.359375 12.515625 -29.144531 12.515625 -24.71875 Z M 12.515625 -24.71875 "/></g></g></g><g fill="#000000" fill-opacity="1"><g transform="translate(577.028941, 766.058645)"><g><path d="M 39.171875 0 L 29.15625 0 L 29.15625 -21.46875 C 29.15625 -24.113281 28.679688 -26.097656 27.734375 -27.421875 C 26.796875 -28.753906 25.296875 -29.421875 23.234375 -29.421875 C 20.429688 -29.421875 18.40625 -28.484375 17.15625 -26.609375 C 15.90625 -24.734375 15.28125 -21.625 15.28125 -17.28125 L 15.28125 0 L 5.265625 0 L 5.265625 -36.75 L 12.921875 -36.75 L 14.265625 -32.046875 L 14.828125 -32.046875 C 15.941406 -33.816406 17.476562 -35.15625 19.4375 -36.0625 C 21.394531 -36.976562 23.625 -37.4375 26.125 -37.4375 C 30.394531 -37.4375 33.632812 -36.28125 35.84375 -33.96875 C 38.0625 -31.65625 39.171875 -28.316406 39.171875 -23.953125 Z M 39.171875 0 "/></g></g></g></svg>